<svg xmlns="http://www.w3.org/2000/svg" xmlns:xlink="http://www.w3.org/1999/xlink" width="2000" zoomAndPan="magnify" viewBox="0 0 1500 1499.999933" height="2000" preserveAspectRatio="xMidYMid meet" version="1.0"><defs><clipPath id="3cea7a8f73"><path d="M 750 0 C 335.785156 0 0 335.785156 0 750 C 0 1164.214844 335.785156 1500 750 1500 C 1164.214844 1500 1500 1164.214844 1500 750 C 1500 335.785156 1164.214844 0 750 0 Z M 750 0 " clip-rule="nonzero"/></clipPath><clipPath id="a0325afacb"><path d="M 0 0 L 1500 0 L 1500 1500 L 0 1500 Z M 0 0 " clip-rule="nonzero"/></clipPath><clipPath id="029a70f0f9"><path d="M 750 0 C 335.785156 0 0 335.785156 0 750 C 0 1164.214844 335.785156 1500 750 1500 C 1164.214844 1500 1500 1164.214844 1500 750 C 1500 335.785156 1164.214844 0 750 0 Z M 750 0 " clip-rule="nonzero"/></clipPath><clipPath id="e04ce4116b"><rect x="0" width="1500" y="0" height="1500"/></clipPath><clipPath id="642d30f6b9"><path d="M 735 222 L 1412 222 L 1412 823 L 735 823 Z M 735 222 " clip-rule="nonzero"/></clipPath><clipPath id="99f05ebcf8"><path d="M -50.488281 927.871094 L 1320.808594 150.121094 L 1542.441406 540.894531 L 171.144531 1318.644531 Z M -50.488281 927.871094 " clip-rule="nonzero"/></clipPath><clipPath id="29ee99e986"><path d="M -50.488281 927.871094 L 1320.808594 150.121094 L 1542.441406 540.894531 L 171.144531 1318.644531 Z M -50.488281 927.871094 " clip-rule="nonzero"/></clipPath><clipPath id="713852eeb8"><path d="M -50.488281 927.871094 L 1320.808594 150.121094 L 1542.441406 540.894531 L 171.144531 1318.644531 Z M -50.488281 927.871094 " clip-rule="nonzero"/></clipPath><clipPath id="e9c2330b97"><path d="M 935 677 L 972 677 L 972 717 L 935 717 Z M 935 677 " clip-rule="nonzero"/></clipPath><clipPath id="80035dae26"><path d="M -50.488281 927.871094 L 1320.808594 150.121094 L 1542.441406 540.894531 L 171.144531 1318.644531 Z M -50.488281 927.871094 " clip-rule="nonzero"/></clipPath><clipPath id="5712a647d0"><path d="M -50.488281 927.871094 L 1320.808594 150.121094 L 1542.441406 540.894531 L 171.144531 1318.644531 Z M -50.488281 927.871094 " clip-rule="nonzero"/></clipPath><clipPath id="7e4dc25032"><path d="M -50.488281 927.871094 L 1320.808594 150.121094 L 1542.441406 540.894531 L 171.144531 1318.644531 Z M -50.488281 927.871094 " clip-rule="nonzero"/></clipPath><clipPath id="3eefdc47ae"><path d="M 970 705 L 1052 705 L 1052 816 L 970 816 Z M 970 705 " clip-rule="nonzero"/></clipPath><clipPath id="d11190a555"><path d="M -50.488281 927.871094 L 1320.808594 150.121094 L 1542.441406 540.894531 L 171.144531 1318.644531 Z M -50.488281 927.871094 " clip-rule="nonzero"/></clipPath><clipPath id="7c5de8a203"><path d="M -50.488281 927.871094 L 1320.808594 150.121094 L 1542.441406 540.894531 L 171.144531 1318.644531 Z M -50.488281 927.871094 " clip-rule="nonzero"/></clipPath><clipPath id="14e0ed65e8"><path d="M -50.488281 927.871094 L 1320.808594 150.121094 L 1542.441406 540.894531 L 171.144531 1318.644531 Z M -50.488281 927.871094 " clip-rule="nonzero"/></clipPath><clipPath id="957ec6d6bc"><path d="M 1075 640 L 1146 640 L 1146 737 L 1075 737 Z M 1075 640 " clip-rule="nonzero"/></clipPath><clipPath id="255ba89f76"><path d="M -50.488281 927.871094 L 1320.808594 150.121094 L 1542.441406 540.894531 L 171.144531 1318.644531 Z M -50.488281 927.871094 " clip-rule="nonzero"/></clipPath><clipPath id="f8791fc3b4"><path d="M -50.488281 927.871094 L 1320.808594 150.121094 L 1542.441406 540.894531 L 171.144531 1318.644531 Z M -50.488281 927.871094 " clip-rule="nonzero"/></clipPath><clipPath id="94f28a2c59"><path d="M -50.488281 927.871094 L 1320.808594 150.121094 L 1542.441406 540.894531 L 171.144531 1318.644531 Z M -50.488281 927.871094 " clip-rule="nonzero"/></clipPath><clipPath id="8468a3ff18"><path d="M 1012 632 L 1081 632 L 1081 794 L 1012 794 Z M 1012 632 " clip-rule="nonzero"/></clipPath><clipPath id="c5c7ddded2"><path d="M -50.488281 927.871094 L 1320.808594 150.121094 L 1542.441406 540.894531 L 171.144531 1318.644531 Z M -50.488281 927.871094 " clip-rule="nonzero"/></clipPath><clipPath id="acc90836f2"><path d="M -50.488281 927.871094 L 1320.808594 150.121094 L 1542.441406 540.894531 L 171.144531 1318.644531 Z M -50.488281 927.871094 " clip-rule="nonzero"/></clipPath><clipPath id="db1889aaee"><path d="M -50.488281 927.871094 L 1320.808594 150.121094 L 1542.441406 540.894531 L 171.144531 1318.644531 Z M -50.488281 927.871094 " clip-rule="nonzero"/></clipPath><clipPath id="6817a0d292"><path d="M 1031 589 L 1129 589 L 1129 657 L 1031 657 Z M 1031 589 " clip-rule="nonzero"/></clipPath><clipPath id="6288abc7d8"><path d="M -50.488281 927.871094 L 1320.808594 150.121094 L 1542.441406 540.894531 L 171.144531 1318.644531 Z M -50.488281 927.871094 " clip-rule="nonzero"/></clipPath><clipPath id="cd6f5f3617"><path d="M -50.488281 927.871094 L 1320.808594 150.121094 L 1542.441406 540.894531 L 171.144531 1318.644531 Z M -50.488281 927.871094 " clip-rule="nonzero"/></clipPath><clipPath id="2aabfb8183"><path d="M -50.488281 927.871094 L 1320.808594 150.121094 L 1542.441406 540.894531 L 171.144531 1318.644531 Z M -50.488281 927.871094 " clip-rule="nonzero"/></clipPath><clipPath id="19ffd35531"><path d="M 1081 568 L 1163 568 L 1163 602 L 1081 602 Z M 1081 568 " clip-rule="nonzero"/></clipPath><clipPath id="84b9842886"><path d="M -50.488281 927.871094 L 1320.808594 150.121094 L 1542.441406 540.894531 L 171.144531 1318.644531 Z M -50.488281 927.871094 " clip-rule="nonzero"/></clipPath><clipPath id="1c7a9b68d3"><path d="M -50.488281 927.871094 L 1320.808594 150.121094 L 1542.441406 540.894531 L 171.144531 1318.644531 Z M -50.488281 927.871094 " clip-rule="nonzero"/></clipPath><clipPath id="64673b2ebd"><path d="M -50.488281 927.871094 L 1320.808594 150.121094 L 1542.441406 540.894531 L 171.144531 1318.644531 Z M -50.488281 927.871094 " clip-rule="nonzero"/></clipPath><clipPath id="2784ba9bbc"><path d="M 742 222 L 1412 222 L 1412 727 L 742 727 Z M 742 222 " clip-rule="nonzero"/></clipPath><clipPath id="b19c1a877e"><path d="M -50.488281 927.871094 L 1320.808594 150.121094 L 1542.441406 540.894531 L 171.144531 1318.644531 Z M -50.488281 927.871094 " clip-rule="nonzero"/></clipPath><clipPath id="6dbc5cab50"><path d="M -50.488281 927.871094 L 1320.808594 150.121094 L 1542.441406 540.894531 L 171.144531 1318.644531 Z M -50.488281 927.871094 " clip-rule="nonzero"/></clipPath><clipPath id="97e3763871"><path d="M -50.488281 927.871094 L 1320.808594 150.121094 L 1542.441406 540.894531 L 171.144531 1318.644531 Z M -50.488281 927.871094 " clip-rule="nonzero"/></clipPath><clipPath id="d27dcbb998"><path d="M 947 603 L 977 603 L 977 646 L 947 646 Z M 947 603 " clip-rule="nonzero"/></clipPath><clipPath id="87fdbbe29e"><path d="M -50.488281 927.871094 L 1320.808594 150.121094 L 1542.441406 540.894531 L 171.144531 1318.644531 Z M -50.488281 927.871094 " clip-rule="nonzero"/></clipPath><clipPath id="f2a5b21a73"><path d="M -50.488281 927.871094 L 1320.808594 150.121094 L 1542.441406 540.894531 L 171.144531 1318.644531 Z M -50.488281 927.871094 " clip-rule="nonzero"/></clipPath><clipPath id="5084a61284"><path d="M -50.488281 927.871094 L 1320.808594 150.121094 L 1542.441406 540.894531 L 171.144531 1318.644531 Z M -50.488281 927.871094 " clip-rule="nonzero"/></clipPath><clipPath id="e75be09ea5"><path d="M 74 701 L 750 701 L 750 1236 L 74 1236 Z M 74 701 " clip-rule="nonzero"/></clipPath><clipPath id="580cf9b3be"><path d="M -50.488281 927.871094 L 1320.808594 150.121094 L 1542.441406 540.894531 L 171.144531 1318.644531 Z M -50.488281 927.871094 " clip-rule="nonzero"/></clipPath><clipPath id="02953dcca9"><path d="M -50.488281 927.871094 L 1320.808594 150.121094 L 1542.441406 540.894531 L 171.144531 1318.644531 Z M -50.488281 927.871094 " clip-rule="nonzero"/></clipPath><clipPath id="d1daca8f37"><path d="M -50.488281 927.871094 L 1320.808594 150.121094 L 1542.441406 540.894531 L 171.144531 1318.644531 Z M -50.488281 927.871094 " clip-rule="nonzero"/></clipPath><clipPath id="ebbe9d9c53"><path d="M 583 892 L 622 892 L 622 920 L 583 920 Z M 583 892 " clip-rule="nonzero"/></clipPath><clipPath id="ffac5a7487"><path d="M -50.488281 927.871094 L 1320.808594 150.121094 L 1542.441406 540.894531 L 171.144531 1318.644531 Z M -50.488281 927.871094 " clip-rule="nonzero"/></clipPath><clipPath id="10328c6478"><path d="M -50.488281 927.871094 L 1320.808594 150.121094 L 1542.441406 540.894531 L 171.144531 1318.644531 Z M -50.488281 927.871094 " clip-rule="nonzero"/></clipPath><clipPath id="d0a97ee0be"><path d="M -50.488281 927.871094 L 1320.808594 150.121094 L 1542.441406 540.894531 L 171.144531 1318.644531 Z M -50.488281 927.871094 " clip-rule="nonzero"/></clipPath><clipPath id="0eb65109d0"><path d="M 366 720 L 490 720 L 490 774 L 366 774 Z M 366 720 " clip-rule="nonzero"/></clipPath><clipPath id="dc06c6934d"><path d="M -50.488281 927.871094 L 1320.808594 150.121094 L 1542.441406 540.894531 L 171.144531 1318.644531 Z M -50.488281 927.871094 " clip-rule="nonzero"/></clipPath><clipPath id="bc56d10edc"><path d="M -50.488281 927.871094 L 1320.808594 150.121094 L 1542.441406 540.894531 L 171.144531 1318.644531 Z M -50.488281 927.871094 " clip-rule="nonzero"/></clipPath><clipPath id="8b39059dd5"><path d="M -50.488281 927.871094 L 1320.808594 150.121094 L 1542.441406 540.894531 L 171.144531 1318.644531 Z M -50.488281 927.871094 " clip-rule="nonzero"/></clipPath><clipPath id="a00eb98696"><path d="M 508 828 L 589 828 L 589 865 L 508 865 Z M 508 828 " clip-rule="nonzero"/></clipPath><clipPath id="d40174effd"><path d="M -50.488281 927.871094 L 1320.808594 150.121094 L 1542.441406 540.894531 L 171.144531 1318.644531 Z M -50.488281 927.871094 " clip-rule="nonzero"/></clipPath><clipPath id="bcf1493757"><path d="M -50.488281 927.871094 L 1320.808594 150.121094 L 1542.441406 540.894531 L 171.144531 1318.644531 Z M -50.488281 927.871094 " clip-rule="nonzero"/></clipPath><clipPath id="9c57e3335e"><path d="M -50.488281 927.871094 L 1320.808594 150.121094 L 1542.441406 540.894531 L 171.144531 1318.644531 Z M -50.488281 927.871094 " clip-rule="nonzero"/></clipPath><clipPath id="f7a299566c"><path d="M 567 928 L 605 928 L 605 960 L 567 960 Z M 567 928 " clip-rule="nonzero"/></clipPath><clipPath id="b4d0e80387"><path d="M -50.488281 927.871094 L 1320.808594 150.121094 L 1542.441406 540.894531 L 171.144531 1318.644531 Z M -50.488281 927.871094 " clip-rule="nonzero"/></clipPath><clipPath id="8cc12eee3c"><path d="M -50.488281 927.871094 L 1320.808594 150.121094 L 1542.441406 540.894531 L 171.144531 1318.644531 Z M -50.488281 927.871094 " clip-rule="nonzero"/></clipPath><clipPath id="e157169ac3"><path d="M -50.488281 927.871094 L 1320.808594 150.121094 L 1542.441406 540.894531 L 171.144531 1318.644531 Z M -50.488281 927.871094 " clip-rule="nonzero"/></clipPath><clipPath id="c270574a14"><path d="M 527 803 L 704 803 L 704 888 L 527 888 Z M 527 803 " clip-rule="nonzero"/></clipPath><clipPath id="539d88361e"><path d="M -50.488281 927.871094 L 1320.808594 150.121094 L 1542.441406 540.894531 L 171.144531 1318.644531 Z M -50.488281 927.871094 " clip-rule="nonzero"/></clipPath><clipPath id="40fca510e6"><path d="M -50.488281 927.871094 L 1320.808594 150.121094 L 1542.441406 540.894531 L 171.144531 1318.644531 Z M -50.488281 927.871094 " clip-rule="nonzero"/></clipPath><clipPath id="12fc51f912"><path d="M -50.488281 927.871094 L 1320.808594 150.121094 L 1542.441406 540.894531 L 171.144531 1318.644531 Z M -50.488281 927.871094 " clip-rule="nonzero"/></clipPath><clipPath id="b86939bddd"><path d="M 532 774 L 735 774 L 735 867 L 532 867 Z M 532 774 " clip-rule="nonzero"/></clipPath><clipPath id="a5961bb463"><path d="M -50.488281 927.871094 L 1320.808594 150.121094 L 1542.441406 540.894531 L 171.144531 1318.644531 Z M -50.488281 927.871094 " clip-rule="nonzero"/></clipPath><clipPath id="ac6d6b276f"><path d="M -50.488281 927.871094 L 1320.808594 150.121094 L 1542.441406 540.894531 L 171.144531 1318.644531 Z M -50.488281 927.871094 " clip-rule="nonzero"/></clipPath><clipPath id="7a7c323b38"><path d="M -50.488281 927.871094 L 1320.808594 150.121094 L 1542.441406 540.894531 L 171.144531 1318.644531 Z M -50.488281 927.871094 " clip-rule="nonzero"/></clipPath><clipPath id="e4e07efa2c"><path d="M 74 708 L 746 708 L 746 1236 L 74 1236 Z M 74 708 " clip-rule="nonzero"/></clipPath><clipPath id="8835739331"><path d="M -50.488281 927.871094 L 1320.808594 150.121094 L 1542.441406 540.894531 L 171.144531 1318.644531 Z M -50.488281 927.871094 " clip-rule="nonzero"/></clipPath><clipPath id="e6d08766c0"><path d="M -50.488281 927.871094 L 1320.808594 150.121094 L 1542.441406 540.894531 L 171.144531 1318.644531 Z M -50.488281 927.871094 " clip-rule="nonzero"/></clipPath><clipPath id="fb99140904"><path d="M -50.488281 927.871094 L 1320.808594 150.121094 L 1542.441406 540.894531 L 171.144531 1318.644531 Z M -50.488281 927.871094 " clip-rule="nonzero"/></clipPath><clipPath id="0127d3eb19"><path d="M 174 831 L 256 831 L 256 924 L 174 924 Z M 174 831 " clip-rule="nonzero"/></clipPath><clipPath id="7308a68e15"><path d="M -50.488281 927.871094 L 1320.808594 150.121094 L 1542.441406 540.894531 L 171.144531 1318.644531 Z M -50.488281 927.871094 " clip-rule="nonzero"/></clipPath><clipPath id="075431dde5"><path d="M -50.488281 927.871094 L 1320.808594 150.121094 L 1542.441406 540.894531 L 171.144531 1318.644531 Z M -50.488281 927.871094 " clip-rule="nonzero"/></clipPath><clipPath id="6fa7cdd82a"><path d="M -50.488281 927.871094 L 1320.808594 150.121094 L 1542.441406 540.894531 L 171.144531 1318.644531 Z M -50.488281 927.871094 " clip-rule="nonzero"/></clipPath><clipPath id="61f81435f7"><path d="M 94 983 L 156 983 L 156 1044 L 94 1044 Z M 94 983 " clip-rule="nonzero"/></clipPath><clipPath id="9c78dae8c2"><path d="M -50.488281 927.871094 L 1320.808594 150.121094 L 1542.441406 540.894531 L 171.144531 1318.644531 Z M -50.488281 927.871094 " clip-rule="nonzero"/></clipPath><clipPath id="998558d52c"><path d="M -50.488281 927.871094 L 1320.808594 150.121094 L 1542.441406 540.894531 L 171.144531 1318.644531 Z M -50.488281 927.871094 " clip-rule="nonzero"/></clipPath><clipPath id="8154e6fd80"><path d="M -50.488281 927.871094 L 1320.808594 150.121094 L 1542.441406 540.894531 L 171.144531 1318.644531 Z M -50.488281 927.871094 " clip-rule="nonzero"/></clipPath><clipPath id="d5c160f9fb"><path d="M 337 794 L 424 794 L 424 846 L 337 846 Z M 337 794 " clip-rule="nonzero"/></clipPath><clipPath id="63c7e63735"><path d="M -50.488281 927.871094 L 1320.808594 150.121094 L 1542.441406 540.894531 L 171.144531 1318.644531 Z M -50.488281 927.871094 " clip-rule="nonzero"/></clipPath><clipPath id="ecd69e8f43"><path d="M -50.488281 927.871094 L 1320.808594 150.121094 L 1542.441406 540.894531 L 171.144531 1318.644531 Z M -50.488281 927.871094 " clip-rule="nonzero"/></clipPath><clipPath id="a3986deefc"><path d="M -50.488281 927.871094 L 1320.808594 150.121094 L 1542.441406 540.894531 L 171.144531 1318.644531 Z M -50.488281 927.871094 " clip-rule="nonzero"/></clipPath><clipPath id="8412339441"><path d="M 472 736 L 662 736 L 662 831 L 472 831 Z M 472 736 " clip-rule="nonzero"/></clipPath><clipPath id="e8854c89c7"><path d="M -50.488281 927.871094 L 1320.808594 150.121094 L 1542.441406 540.894531 L 171.144531 1318.644531 Z M -50.488281 927.871094 " clip-rule="nonzero"/></clipPath><clipPath id="ad36ef6b11"><path d="M -50.488281 927.871094 L 1320.808594 150.121094 L 1542.441406 540.894531 L 171.144531 1318.644531 Z M -50.488281 927.871094 " clip-rule="nonzero"/></clipPath><clipPath id="afa72207ee"><path d="M -50.488281 927.871094 L 1320.808594 150.121094 L 1542.441406 540.894531 L 171.144531 1318.644531 Z M -50.488281 927.871094 " clip-rule="nonzero"/></clipPath><clipPath id="91f98e3310"><path d="M 287 855 L 471 855 L 471 927 L 287 927 Z M 287 855 " clip-rule="nonzero"/></clipPath><clipPath id="6ffad85017"><path d="M -50.488281 927.871094 L 1320.808594 150.121094 L 1542.441406 540.894531 L 171.144531 1318.644531 Z M -50.488281 927.871094 " clip-rule="nonzero"/></clipPath><clipPath id="bac062ad40"><path d="M -50.488281 927.871094 L 1320.808594 150.121094 L 1542.441406 540.894531 L 171.144531 1318.644531 Z M -50.488281 927.871094 " clip-rule="nonzero"/></clipPath><clipPath id="4fce1f5110"><path d="M -50.488281 927.871094 L 1320.808594 150.121094 L 1542.441406 540.894531 L 171.144531 1318.644531 Z M -50.488281 927.871094 " clip-rule="nonzero"/></clipPath><clipPath id="6339371e9a"><path d="M 747 618 L 819 618 L 819 713 L 747 713 Z M 747 618 " clip-rule="nonzero"/></clipPath><clipPath id="87b21ff568"><path d="M -50.488281 927.871094 L 1320.808594 150.121094 L 1542.441406 540.894531 L 171.144531 1318.644531 Z M -50.488281 927.871094 " clip-rule="nonzero"/></clipPath><clipPath id="b15cc098e4"><path d="M -50.488281 927.871094 L 1320.808594 150.121094 L 1542.441406 540.894531 L 171.144531 1318.644531 Z M -50.488281 927.871094 " clip-rule="nonzero"/></clipPath><clipPath id="b35d5d5436"><path d="M -50.488281 927.871094 L 1320.808594 150.121094 L 1542.441406 540.894531 L 171.144531 1318.644531 Z M -50.488281 927.871094 " clip-rule="nonzero"/></clipPath><clipPath id="dbb8dfc912"><path d="M 833 489 L 981 489 L 981 625 L 833 625 Z M 833 489 " clip-rule="nonzero"/></clipPath><clipPath id="7bf2e426a1"><path d="M -50.488281 927.871094 L 1320.808594 150.121094 L 1542.441406 540.894531 L 171.144531 1318.644531 Z M -50.488281 927.871094 " clip-rule="nonzero"/></clipPath><clipPath id="4f217d1a1a"><path d="M -50.488281 927.871094 L 1320.808594 150.121094 L 1542.441406 540.894531 L 171.144531 1318.644531 Z M -50.488281 927.871094 " clip-rule="nonzero"/></clipPath><clipPath id="1d4630b5ea"><path d="M -50.488281 927.871094 L 1320.808594 150.121094 L 1542.441406 540.894531 L 171.144531 1318.644531 Z M -50.488281 927.871094 " clip-rule="nonzero"/></clipPath><clipPath id="c732f77a6e"><path d="M 958 673 L 994 673 L 994 721 L 958 721 Z M 958 673 " clip-rule="nonzero"/></clipPath><clipPath id="b1c0bc1ed2"><path d="M -50.488281 927.871094 L 1320.808594 150.121094 L 1542.441406 540.894531 L 171.144531 1318.644531 Z M -50.488281 927.871094 " clip-rule="nonzero"/></clipPath><clipPath id="d8cdc4b218"><path d="M -50.488281 927.871094 L 1320.808594 150.121094 L 1542.441406 540.894531 L 171.144531 1318.644531 Z M -50.488281 927.871094 " clip-rule="nonzero"/></clipPath><clipPath id="cd52d5a0ca"><path d="M -50.488281 927.871094 L 1320.808594 150.121094 L 1542.441406 540.894531 L 171.144531 1318.644531 Z M -50.488281 927.871094 " clip-rule="nonzero"/></clipPath><clipPath id="6089b622bd"><path d="M 960 644 L 987 644 L 987 664 L 960 664 Z M 960 644 " clip-rule="nonzero"/></clipPath><clipPath id="5d3c3450c6"><path d="M -50.488281 927.871094 L 1320.808594 150.121094 L 1542.441406 540.894531 L 171.144531 1318.644531 Z M -50.488281 927.871094 " clip-rule="nonzero"/></clipPath><clipPath id="2fbde8a805"><path d="M -50.488281 927.871094 L 1320.808594 150.121094 L 1542.441406 540.894531 L 171.144531 1318.644531 Z M -50.488281 927.871094 " clip-rule="nonzero"/></clipPath><clipPath id="2ef93d7734"><path d="M -50.488281 927.871094 L 1320.808594 150.121094 L 1542.441406 540.894531 L 171.144531 1318.644531 Z M -50.488281 927.871094 " clip-rule="nonzero"/></clipPath><clipPath id="8b9201070a"><path d="M 971 506 L 1038 506 L 1038 645 L 971 645 Z M 971 506 " clip-rule="nonzero"/></clipPath><clipPath id="228727841d"><path d="M -50.488281 927.871094 L 1320.808594 150.121094 L 1542.441406 540.894531 L 171.144531 1318.644531 Z M -50.488281 927.871094 " clip-rule="nonzero"/></clipPath><clipPath id="792416cfd7"><path d="M -50.488281 927.871094 L 1320.808594 150.121094 L 1542.441406 540.894531 L 171.144531 1318.644531 Z M -50.488281 927.871094 " clip-rule="nonzero"/></clipPath><clipPath id="f8679172b2"><path d="M -50.488281 927.871094 L 1320.808594 150.121094 L 1542.441406 540.894531 L 171.144531 1318.644531 Z M -50.488281 927.871094 " clip-rule="nonzero"/></clipPath><clipPath id="fd1bd83534"><path d="M 1046 470 L 1085 470 L 1085 526 L 1046 526 Z M 1046 470 " clip-rule="nonzero"/></clipPath><clipPath id="bcb8145c0f"><path d="M -50.488281 927.871094 L 1320.808594 150.121094 L 1542.441406 540.894531 L 171.144531 1318.644531 Z M -50.488281 927.871094 " clip-rule="nonzero"/></clipPath><clipPath id="ec3c903ae9"><path d="M -50.488281 927.871094 L 1320.808594 150.121094 L 1542.441406 540.894531 L 171.144531 1318.644531 Z M -50.488281 927.871094 " clip-rule="nonzero"/></clipPath><clipPath id="f87fe068d5"><path d="M -50.488281 927.871094 L 1320.808594 150.121094 L 1542.441406 540.894531 L 171.144531 1318.644531 Z M -50.488281 927.871094 " clip-rule="nonzero"/></clipPath><clipPath id="c1e749f54b"><path d="M 993 401 L 1032 401 L 1032 451 L 993 451 Z M 993 401 " clip-rule="nonzero"/></clipPath><clipPath id="3c52169fbe"><path d="M -50.488281 927.871094 L 1320.808594 150.121094 L 1542.441406 540.894531 L 171.144531 1318.644531 Z M -50.488281 927.871094 " clip-rule="nonzero"/></clipPath><clipPath id="5105207a66"><path d="M -50.488281 927.871094 L 1320.808594 150.121094 L 1542.441406 540.894531 L 171.144531 1318.644531 Z M -50.488281 927.871094 " clip-rule="nonzero"/></clipPath><clipPath id="8391b154bf"><path d="M -50.488281 927.871094 L 1320.808594 150.121094 L 1542.441406 540.894531 L 171.144531 1318.644531 Z M -50.488281 927.871094 " clip-rule="nonzero"/></clipPath><clipPath id="894698f449"><path d="M 1086 224 L 1288 224 L 1288 414 L 1086 414 Z M 1086 224 " clip-rule="nonzero"/></clipPath><clipPath id="3ea8cee0e6"><path d="M -50.488281 927.871094 L 1320.808594 150.121094 L 1542.441406 540.894531 L 171.144531 1318.644531 Z M -50.488281 927.871094 " clip-rule="nonzero"/></clipPath><clipPath id="3309c8a726"><path d="M -50.488281 927.871094 L 1320.808594 150.121094 L 1542.441406 540.894531 L 171.144531 1318.644531 Z M -50.488281 927.871094 " clip-rule="nonzero"/></clipPath><clipPath id="757efa4503"><path d="M -50.488281 927.871094 L 1320.808594 150.121094 L 1542.441406 540.894531 L 171.144531 1318.644531 Z M -50.488281 927.871094 " clip-rule="nonzero"/></clipPath><clipPath id="abcda97bc0"><path d="M 927 667 L 945 667 L 945 724 L 927 724 Z M 927 667 " clip-rule="nonzero"/></clipPath><clipPath id="1926c5b242"><path d="M -50.488281 927.871094 L 1320.808594 150.121094 L 1542.441406 540.894531 L 171.144531 1318.644531 Z M -50.488281 927.871094 " clip-rule="nonzero"/></clipPath><clipPath id="adec2a49e9"><path d="M -50.488281 927.871094 L 1320.808594 150.121094 L 1542.441406 540.894531 L 171.144531 1318.644531 Z M -50.488281 927.871094 " clip-rule="nonzero"/></clipPath><clipPath id="b294d68c56"><path d="M -50.488281 927.871094 L 1320.808594 150.121094 L 1542.441406 540.894531 L 171.144531 1318.644531 Z M -50.488281 927.871094 " clip-rule="nonzero"/></clipPath><clipPath id="510bc22422"><path d="M 1153 250 L 1412 250 L 1412 475 L 1153 475 Z M 1153 250 " clip-rule="nonzero"/></clipPath><clipPath id="4de9ce776d"><path d="M -50.488281 927.871094 L 1320.808594 150.121094 L 1542.441406 540.894531 L 171.144531 1318.644531 Z M -50.488281 927.871094 " clip-rule="nonzero"/></clipPath><clipPath id="69edff8835"><path d="M -50.488281 927.871094 L 1320.808594 150.121094 L 1542.441406 540.894531 L 171.144531 1318.644531 Z M -50.488281 927.871094 " clip-rule="nonzero"/></clipPath><clipPath id="bd7c7b10d4"><path d="M -50.488281 927.871094 L 1320.808594 150.121094 L 1542.441406 540.894531 L 171.144531 1318.644531 Z M -50.488281 927.871094 " clip-rule="nonzero"/></clipPath><clipPath id="ba12d8ae31"><path d="M 126 941 L 292 941 L 292 1236 L 126 1236 Z M 126 941 " clip-rule="nonzero"/></clipPath><clipPath id="f7de6b2290"><path d="M -50.488281 927.871094 L 1320.808594 150.121094 L 1542.441406 540.894531 L 171.144531 1318.644531 Z M -50.488281 927.871094 " clip-rule="nonzero"/></clipPath><clipPath id="33adbe9508"><path d="M -50.488281 927.871094 L 1320.808594 150.121094 L 1542.441406 540.894531 L 171.144531 1318.644531 Z M -50.488281 927.871094 " clip-rule="nonzero"/></clipPath><clipPath id="3e3f561c3b"><path d="M -50.488281 927.871094 L 1320.808594 150.121094 L 1542.441406 540.894531 L 171.144531 1318.644531 Z M -50.488281 927.871094 " clip-rule="nonzero"/></clipPath></defs><g clip-path="url(#3cea7a8f73)"><g transform="matrix(1, 0, 0, 1, 0, 0.000000000000112861)"><g clip-path="url(#e04ce4116b)"><g clip-path="url(#a0325afacb)"><g clip-path="url(#029a70f0f9)"><rect x="-330" width="2160" fill="#ffd700" height="2159.999904" y="-329.999985" fill-opacity="1"/></g></g></g></g></g><g clip-path="url(#642d30f6b9)"><g clip-path="url(#99f05ebcf8)"><g clip-path="url(#29ee99e986)"><g clip-path="url(#713852eeb8)"><path fill="#5d5242" d="M 1135.515625 625.6875 C 1134.949219 626.007812 1134.6875 626.664062 1134.257812 627.144531 C 1133.625 627.871094 1132.953125 628.566406 1132.277344 629.253906 C 1129.859375 631.707031 1127.191406 633.867188 1124.3125 635.738281 C 1124.660156 636.574219 1125.007812 637.410156 1125.332031 638.261719 C 1126.105469 640.265625 1126.792969 642.292969 1127.363281 644.363281 C 1129.425781 651.835938 1129.957031 659.96875 1126.105469 666.820312 C 1131.320312 673.078125 1136.292969 679.628906 1140.625 686.511719 C 1144.667969 692.9375 1148.371094 700.03125 1150.464844 707.359375 C 1152.335938 713.824219 1152.066406 721.441406 1149.988281 727.832031 C 1148.738281 731.652344 1146.757812 735.382812 1143.839844 738.195312 C 1140.6875 741.238281 1136.742188 742.933594 1132.347656 742.886719 C 1127.820312 742.832031 1123.558594 740.945312 1119.875 738.429688 L 1119.132812 737.929688 C 1117.675781 736.929688 1116.230469 735.921875 1114.621094 735.183594 C 1105.316406 730.964844 1100.605469 724.089844 1095.359375 715.867188 C 1093.410156 712.828125 1091.457031 709.773438 1089.140625 707.007812 L 1089.101562 706.964844 C 1087.753906 705.347656 1086.269531 703.820312 1084.8125 702.3125 C 1080.75 698.121094 1075.300781 692.714844 1074.855469 686.582031 C 1074.351562 679.640625 1073.050781 672.867188 1070.761719 666.285156 C 1070.296875 664.929688 1069.785156 663.585938 1069.234375 662.277344 C 1068.417969 672.316406 1065.929688 682.6875 1062.015625 691.671875 C 1063.015625 693.347656 1063.964844 695.046875 1064.867188 696.757812 C 1066.085938 699.101562 1067.226562 701.472656 1068.238281 703.898438 C 1072.851562 714.863281 1075.078125 726.351562 1073.972656 738.210938 C 1075.832031 740.425781 1077.605469 742.710938 1079.257812 745.089844 C 1081.09375 747.765625 1082.777344 750.542969 1084.207031 753.449219 C 1091.230469 767.683594 1090.644531 781.5 1080.71875 794.101562 L 1080.394531 794.511719 L 1079.941406 794.890625 C 1078.875 795.753906 1077.765625 796.542969 1076.59375 797.25 C 1075.46875 797.921875 1074.296875 798.523438 1073.074219 798.996094 C 1069.417969 800.449219 1065.742188 800.773438 1062.097656 800.058594 C 1061.917969 804.367188 1060.671875 808.441406 1058.125 812.160156 L 1057.859375 812.53125 L 1057.542969 812.839844 C 1056.714844 813.675781 1055.859375 814.460938 1054.957031 815.226562 C 1050.457031 819.082031 1044.988281 822.183594 1038.921875 822.242188 C 1032.890625 822.308594 1027.804688 819.414062 1023.660156 815.1875 C 1023.066406 814.589844 1022.496094 813.976562 1021.953125 813.328125 L 1021.875 813.246094 L 1021.699219 812.996094 C 1017.136719 806.628906 1011.953125 799.925781 1006.195312 794.566406 C 1005.382812 793.804688 1004.546875 793.054688 1003.667969 792.347656 C 1002.917969 791.722656 1002.144531 791.144531 1001.335938 790.589844 L 1001.019531 790.371094 L 1000.964844 790.324219 C 996.027344 786.324219 991.410156 781.90625 987.359375 777.007812 C 983.582031 772.449219 980.292969 767.488281 977.691406 762.179688 L 977.535156 761.871094 L 977.445312 761.601562 C 974.691406 753.414062 971.460938 745.367188 967.648438 737.601562 C 966.960938 736.199219 966.242188 734.792969 965.523438 733.410156 C 965.34375 733.097656 965.179688 732.777344 965.015625 732.457031 C 963.066406 732.863281 961.109375 733.132812 959.136719 733.265625 C 954.941406 733.546875 950.753906 733.222656 946.65625 732.324219 C 942.394531 731.390625 938.285156 729.859375 934.394531 727.90625 L 934.320312 727.882812 L 933.371094 727.390625 L 933.339844 727.359375 C 928.492188 724.722656 924.285156 720.695312 922.160156 715.546875 C 920.015625 710.363281 920.25 704.8125 922.800781 699.761719 L 923.117188 699.167969 L 923.132812 699.144531 C 924.179688 697.203125 925.246094 695.277344 926.324219 693.363281 C 931.335938 684.421875 935.789062 675.941406 939.019531 666.152344 C 940.6875 661.109375 942.679688 656.164062 945.046875 651.40625 C 945.410156 647.707031 945.535156 643.949219 945.671875 640.238281 L 945.738281 638.421875 L 945.777344 638.160156 C 946.078125 636.195312 946.53125 632.570312 945.964844 630.476562 C 939.203125 632.25 932.363281 632.316406 925.503906 630.757812 C 924.085938 630.433594 922.671875 630.046875 921.273438 629.597656 C 920.652344 629.394531 920.035156 629.175781 919.425781 628.945312 C 905.738281 637.804688 891.042969 645.808594 875.695312 651.320312 C 872.925781 652.320312 870.132812 653.21875 867.3125 654.042969 C 865.042969 654.691406 862.78125 655.292969 860.488281 655.816406 C 852.953125 666.316406 843.519531 675.558594 833.539062 683.695312 C 831.199219 685.59375 828.820312 687.449219 826.410156 689.246094 C 823.980469 691.070312 821.503906 692.839844 819.003906 694.5625 C 811.566406 705.144531 802.65625 715.394531 792.066406 722.910156 C 782.382812 729.785156 771.386719 734.175781 759.4375 734.503906 C 753.964844 734.65625 748.046875 733.660156 743.328125 730.746094 C 741.289062 729.472656 739.46875 727.835938 738.140625 725.828125 C 736.796875 723.792969 736.019531 721.46875 735.945312 719.019531 C 735.875 716.199219 736.730469 713.507812 738.21875 711.121094 C 741.503906 705.828125 745.082031 700.734375 748.695312 695.648438 C 752.890625 689.746094 757.480469 683.472656 760.535156 676.894531 C 762.636719 672.367188 766.726562 669.269531 770.574219 666.308594 C 772.15625 665.09375 773.734375 663.867188 775.277344 662.53125 L 775.296875 662.503906 C 779.945312 658.46875 783.914062 653.835938 787.292969 648.679688 C 790.347656 644.039062 792.832031 639.089844 795.050781 633.988281 C 799.035156 624.820312 808.273438 616.546875 816.019531 610.515625 C 828.628906 600.679688 843.058594 592.097656 856.96875 584.242188 C 866.125 579.050781 877.660156 571.886719 884.871094 564.097656 C 885.660156 563.25 886.425781 562.359375 887.101562 561.417969 C 887.523438 560.847656 887.910156 560.246094 888.246094 559.625 L 888.363281 559.386719 C 891.183594 553.578125 897.394531 548.988281 902.390625 545.105469 C 906.023438 542.269531 909.601562 539.445312 912.988281 536.347656 L 913.097656 536.257812 L 913.136719 536.214844 C 920.335938 529.609375 926.628906 521.355469 932.25 513.398438 C 939.761719 502.804688 946.683594 491.714844 953.589844 480.730469 C 956.996094 475.304688 960.640625 469.855469 964.808594 464.996094 C 968.40625 460.777344 972.515625 456.90625 977.347656 454.136719 C 982.476562 451.195312 986.972656 447.246094 990.113281 442.195312 C 990.738281 441.171875 991.316406 440.113281 991.828125 439.03125 C 992.351562 437.90625 992.808594 436.757812 993.195312 435.585938 L 993.230469 435.453125 C 996.09375 426.667969 1000.246094 418.53125 1006.117188 411.375 C 1012.445312 403.65625 1020.289062 397.683594 1029.117188 393.085938 C 1036.851562 389.082031 1044.40625 384.226562 1050.722656 378.164062 C 1056.355469 372.746094 1060.871094 366.453125 1063.601562 359.109375 C 1066.894531 350.1875 1071.484375 341.976562 1077.417969 334.546875 C 1084.179688 326.074219 1092.382812 318.976562 1101.394531 312.992188 C 1111.664062 306.199219 1121.003906 298.105469 1128.886719 288.617188 C 1130.371094 286.835938 1131.796875 285.011719 1133.164062 283.140625 C 1134.527344 281.285156 1135.847656 279.410156 1137.070312 277.476562 L 1137.527344 276.742188 C 1148.214844 257.355469 1163.023438 246.273438 1178.421875 232.503906 C 1195.878906 221.441406 1204.265625 220.515625 1243.785156 224.609375 C 1264.796875 226.78125 1280.0625 227.652344 1291.269531 225.566406 C 1333.105469 217.769531 1357.726562 242.480469 1369.066406 295.070312 C 1372.28125 309.953125 1382.6875 313.089844 1393.324219 317.398438 C 1422.207031 329.082031 1412.742188 350.648438 1393.351562 365.394531 L 1392.269531 366.199219 L 1391.929688 366.441406 L 1391.941406 366.433594 C 1372.421875 381 1354.003906 395.273438 1329.875 407.621094 C 1305.753906 419.953125 1279.152344 428.371094 1254.1875 439.164062 C 1249.074219 441.378906 1244.054688 443.8125 1239.210938 446.558594 C 1212.894531 461.4375 1209.324219 479.679688 1200.121094 503.722656 C 1198.898438 506.890625 1197.734375 510.078125 1196.609375 513.273438 C 1188.195312 537.199219 1190.335938 550.945312 1176.527344 572.472656 C 1172.476562 578.769531 1167.910156 584.617188 1163.078125 590.324219 C 1160.464844 593.414062 1158.925781 597.113281 1157.398438 600.808594 C 1156.886719 602.066406 1156.371094 603.3125 1155.796875 604.542969 C 1153.730469 609.046875 1151.007812 613.152344 1147.554688 616.726562 C 1144.054688 620.382812 1139.859375 623.125 1135.515625 625.6875 " fill-opacity="1" fill-rule="evenodd"/></g></g></g></g><g clip-path="url(#e9c2330b97)"><g clip-path="url(#80035dae26)"><g clip-path="url(#5712a647d0)"><g clip-path="url(#7e4dc25032)"><path fill="#fbca8e" d="M 940.605469 713.503906 C 945.203125 716.152344 949.546875 717.058594 953.429688 716.648438 C 957.613281 716.214844 960.550781 715.738281 963.503906 712.824219 C 966.488281 709.878906 968.730469 705.9375 969.980469 701.527344 C 971.59375 695.800781 971.519531 689.285156 969.195312 683.199219 C 968.136719 680.433594 964.558594 679.445312 961.65625 678.644531 C 961.160156 678.496094 960.6875 678.367188 960.171875 678.214844 C 950.90625 675.371094 947.71875 681.324219 943.746094 688.769531 C 942.875 690.394531 941.984375 692.074219 941.023438 693.683594 L 940.15625 695.128906 C 939.589844 696.085938 939.007812 697.050781 938.46875 697.976562 C 934.652344 704.601562 933.023438 709.128906 940.605469 713.503906 " fill-opacity="1" fill-rule="nonzero"/></g></g></g></g><g clip-path="url(#3eefdc47ae)"><g clip-path="url(#d11190a555)"><g clip-path="url(#7c5de8a203)"><g clip-path="url(#14e0ed65e8)"><path fill="#d6a76d" d="M 970.007812 727.957031 C 970.433594 728.734375 970.859375 729.539062 971.289062 730.359375 C 972.042969 731.773438 972.777344 733.234375 973.511719 734.722656 C 977.234375 742.296875 980.597656 750.523438 983.605469 759.414062 C 985.910156 764.09375 988.847656 768.574219 992.390625 772.855469 C 995.960938 777.164062 1000.1875 781.28125 1005.03125 785.203125 L 1005.042969 785.195312 L 1005.050781 785.210938 C 1005.90625 785.789062 1006.828125 786.488281 1007.800781 787.285156 C 1008.777344 788.082031 1009.730469 788.921875 1010.667969 789.789062 C 1015.554688 794.34375 1020.96875 800.785156 1026.941406 809.101562 C 1027.402344 809.632812 1027.871094 810.148438 1028.320312 810.605469 C 1031.699219 814.042969 1035.210938 815.753906 1038.851562 815.703125 C 1055.875 815.53125 1053.625 795.460938 1045.800781 785.667969 C 1034.730469 767.660156 1024.296875 757.886719 1014.480469 756.355469 L 1015.914062 756.636719 C 1017.929688 743.105469 1014.328125 733.761719 1005.152344 728.59375 C 1009.933594 728.28125 1013.976562 729.132812 1017.277344 731.148438 C 1007.769531 722.644531 1001.714844 714.070312 999.117188 705.460938 C 989.9375 716.828125 980.160156 724.375 970.007812 727.957031 " fill-opacity="1" fill-rule="nonzero"/></g></g></g></g><g clip-path="url(#957ec6d6bc)"><g clip-path="url(#255ba89f76)"><g clip-path="url(#f8791fc3b4)"><g clip-path="url(#94f28a2c59)"><path fill="#d6a76d" d="M 1076.925781 664.125 C 1079.53125 671.636719 1080.863281 678.96875 1081.371094 686.109375 C 1081.628906 689.617188 1085.566406 693.707031 1089.511719 697.773438 C 1091.125 699.445312 1092.734375 701.105469 1094.121094 702.765625 L 1094.140625 702.804688 C 1096.6875 705.835938 1098.785156 709.113281 1100.851562 712.339844 C 1105.132812 719.042969 1109.335938 725.617188 1117.316406 729.238281 C 1119.535156 730.238281 1121.25 731.441406 1122.835938 732.527344 L 1123.566406 733.03125 C 1126.917969 735.324219 1129.875 736.316406 1132.433594 736.34375 C 1135.125 736.386719 1137.433594 735.300781 1139.300781 733.496094 C 1141.261719 731.605469 1142.773438 728.890625 1143.761719 725.820312 C 1145.480469 720.558594 1145.671875 714.316406 1144.195312 709.164062 C 1143.183594 705.671875 1141.6875 701.996094 1139.753906 698.167969 C 1131.109375 691.351562 1120.226562 690.457031 1107.074219 695.5 C 1110.839844 691.125 1115.539062 687.875 1121.1875 685.734375 C 1113.34375 678.96875 1104.539062 675.957031 1094.757812 676.691406 C 1099.777344 672.464844 1105.011719 669.429688 1110.480469 667.617188 C 1127.515625 639.480469 1063.320312 625.019531 1076.925781 664.125 " fill-opacity="1" fill-rule="nonzero"/></g></g></g></g><g clip-path="url(#8468a3ff18)"><g clip-path="url(#c5c7ddded2)"><g clip-path="url(#acc90836f2)"><g clip-path="url(#db1889aaee)"><path fill="#d6a76d" d="M 1030.917969 632.753906 C 1029.910156 634.867188 1028.867188 636.949219 1027.867188 638.964844 C 1024.1875 646.339844 1021.050781 652.660156 1020.015625 658.507812 L 1020.003906 658.511719 L 1019.566406 661.078125 C 1016.050781 681.289062 1008.226562 688.445312 1015.613281 709.730469 C 1016.117188 711.207031 1016.703125 712.6875 1017.351562 714.164062 C 1018.011719 715.664062 1018.714844 717.105469 1019.460938 718.476562 C 1024.515625 726.125 1027.820312 733.097656 1029.359375 739.371094 C 1029.679688 740.664062 1029.925781 741.910156 1030.09375 743.132812 C 1030.265625 744.351562 1030.359375 745.554688 1030.390625 746.761719 L 1030.382812 746.746094 L 1030.386719 746.808594 C 1040.972656 759.785156 1049.707031 771.714844 1054.648438 782.191406 C 1056.183594 785.464844 1057.371094 788.589844 1058.125 791.574219 C 1062.402344 794.074219 1066.585938 794.527344 1070.664062 792.929688 C 1071.53125 792.578125 1072.386719 792.15625 1073.214844 791.65625 C 1074.054688 791.148438 1074.882812 790.566406 1075.714844 789.90625 C 1077.773438 787.261719 1079.339844 784.5625 1080.4375 781.761719 C 1080.449219 767.859375 1072.503906 754.75 1056.597656 742.441406 C 1063.523438 730.9375 1060.484375 714.398438 1047.464844 692.84375 C 1043.421875 698.183594 1038.4375 700.597656 1032.503906 700.074219 C 1047.386719 690.1875 1051.476562 676.84375 1044.777344 660.042969 C 1042.097656 655.65625 1039.832031 653.175781 1038.023438 652.613281 C 1042.410156 642.199219 1040.039062 635.585938 1030.917969 632.753906 " fill-opacity="1" fill-rule="nonzero"/></g></g></g></g><g clip-path="url(#6817a0d292)"><g clip-path="url(#6288abc7d8)"><g clip-path="url(#cd6f5f3617)"><g clip-path="url(#2aabfb8183)"><path fill="#d6a76d" d="M 1069.273438 589.75 C 1051.371094 597.425781 1040.027344 613.324219 1032.019531 630.460938 L 1031.925781 630.660156 C 1044.453125 627.460938 1062.101562 638.941406 1068.394531 656.589844 C 1074.859375 635.5 1096.957031 627.382812 1111.183594 632.558594 C 1121.414062 626.980469 1127.300781 619.71875 1128.855469 610.785156 C 1114.335938 617.304688 1102.171875 613.417969 1092.34375 599.140625 C 1083.453125 605.199219 1074.796875 605.820312 1066.414062 601.011719 C 1077.300781 600.824219 1084.75 598.554688 1088.746094 594.175781 C 1079.738281 596.269531 1073.242188 594.789062 1069.273438 589.75 " fill-opacity="1" fill-rule="nonzero"/></g></g></g></g><g clip-path="url(#19ffd35531)"><g clip-path="url(#84b9842886)"><g clip-path="url(#1c7a9b68d3)"><g clip-path="url(#64673b2ebd)"><path fill="#d6a76d" d="M 1081.464844 584.136719 C 1111.359375 605.921875 1134.621094 607.753906 1151.265625 589.65625 C 1144.105469 590.984375 1138.539062 589.378906 1134.566406 584.832031 C 1145.71875 587.941406 1155.082031 583.617188 1162.675781 571.828125 C 1154.871094 573.078125 1148.476562 571.859375 1143.464844 568.175781 C 1124.46875 580.222656 1103.785156 587.503906 1081.464844 584.136719 " fill-opacity="1" fill-rule="nonzero"/></g></g></g></g><g clip-path="url(#2784ba9bbc)"><g clip-path="url(#b19c1a877e)"><g clip-path="url(#6dbc5cab50)"><g clip-path="url(#97e3763871)"><path fill="#eaba7a" d="M 983.492188 574.726562 C 976.105469 574.199219 968.953125 570.074219 962.074219 562.367188 C 978.605469 560.539062 988.691406 543.316406 990.617188 530.042969 C 991.25 533.542969 991.085938 537.367188 990.34375 541.632812 C 989.617188 545.761719 988.335938 550.363281 986.734375 555.464844 C 986.410156 556.460938 986.195312 557.484375 986.035156 558.515625 L 985.851562 560.238281 C 985.585938 563.996094 986.125 567.945312 986.699219 572.066406 C 989.878906 595.007812 981.523438 614.136719 967.292969 631.390625 C 973.027344 631.394531 978.234375 631.695312 980.175781 637.613281 C 969.300781 627.230469 958.113281 642.628906 956.167969 653.089844 C 946.238281 655.941406 935.933594 689.613281 932.027344 696.5625 C 930.832031 698.683594 929.707031 700.703125 928.761719 702.480469 L 928.613281 702.753906 C 926.90625 706.152344 926.839844 709.765625 928.191406 713.046875 C 929.589844 716.433594 932.496094 719.515625 936.683594 721.746094 L 936.679688 721.734375 L 937.175781 721.992188 L 937.207031 722.023438 C 940.828125 723.84375 944.460938 725.148438 948.054688 725.941406 C 951.628906 726.722656 955.175781 726.984375 958.683594 726.757812 C 961.421875 726.570312 964.125 726.070312 966.816406 725.273438 C 966.882812 725.25 966.96875 725.234375 967.035156 725.210938 C 976.839844 722.273438 986.351562 715.320312 995.363281 704.492188 C 1017.804688 662.589844 1007.609375 602.773438 1054.914062 565.667969 C 1062.238281 559.925781 1061.957031 550.160156 1055.179688 537.675781 C 1070.054688 547.183594 1082.726562 544.90625 1095.199219 532.84375 C 1123.40625 505.617188 1140.207031 451.632812 1091.203125 431.078125 C 1097.847656 431.535156 1105.066406 433.507812 1112.199219 437.625 C 1120.8125 442.589844 1129.328125 450.65625 1136.632812 462.921875 C 1138.457031 465.96875 1139.996094 469.050781 1141.25 472.101562 C 1142.507812 475.183594 1143.453125 478.222656 1144.0625 481.148438 L 1144.054688 481.136719 L 1144.0625 481.179688 C 1149.140625 505.839844 1138.148438 532.5 1119.449219 553.921875 C 1145.953125 534.222656 1157.667969 507.628906 1154.582031 474.152344 C 1184.3125 463.894531 1211.25 439.070312 1221.722656 409.257812 C 1262.910156 411.410156 1312.53125 389.109375 1350.476562 360.566406 C 1337.992188 380.117188 1307.40625 401.449219 1282.324219 408.640625 C 1312.71875 401.515625 1353.085938 387.074219 1395.238281 363.898438 C 1413.328125 349.222656 1421.238281 328.691406 1393.324219 317.398438 C 1382.6875 313.089844 1372.28125 309.953125 1369.066406 295.070312 C 1357.726562 242.480469 1333.105469 217.769531 1291.269531 225.566406 C 1280.0625 227.652344 1264.796875 226.78125 1243.785156 224.609375 C 1204.265625 220.515625 1195.878906 221.441406 1178.410156 232.511719 C 1164.84375 245.921875 1150.074219 267.496094 1143.191406 280.007812 L 1143.125 280.113281 L 1142.570312 280.980469 C 1141.234375 283.054688 1139.863281 285.058594 1138.441406 287.007812 C 1136.996094 288.972656 1135.488281 290.90625 1133.910156 292.800781 C 1125.988281 302.328125 1116.363281 310.902344 1105.007812 318.4375 C 1095.648438 324.652344 1088.289062 331.414062 1082.527344 338.621094 C 1076.800781 345.808594 1075.671875 357.933594 1072.726562 365.875 C 1069.699219 374.089844 1064.71875 381.1875 1058.261719 387.390625 C 1051.863281 393.53125 1041 394.289062 1032.136719 398.886719 C 1023.34375 403.460938 1013.722656 409.300781 1008.417969 415.769531 C 1003.113281 422.242188 999.34375 429.621094 996.710938 437.722656 L 996.671875 437.824219 C 996.175781 439.328125 995.605469 440.730469 995 442.042969 C 994.363281 443.390625 993.664062 444.675781 992.910156 445.898438 C 989.054688 452.117188 986.410156 456.476562 980.605469 459.800781 C 976.773438 462.003906 973.242188 465.183594 969.777344 469.246094 C 966.238281 473.367188 962.769531 478.398438 959.132812 484.195312 C 951.425781 496.457031 944.367188 507.625 937.589844 517.183594 C 930.765625 526.855469 924.179688 534.988281 917.464844 541.132812 L 917.460938 541.121094 L 917.40625 541.164062 L 917.414062 541.175781 C 913.550781 544.703125 909.792969 547.628906 906.410156 550.261719 C 896.96875 557.617188 889.945312 569.875 891.601562 582.882812 C 889.589844 579.476562 885.183594 576.324219 884.277344 573.664062 C 878.675781 579.109375 873.09375 582.625 860.191406 589.925781 C 848.332031 596.636719 831.175781 601.699219 833.175781 618.113281 C 830.648438 615.164062 828.765625 612.515625 827.519531 610.15625 C 824.847656 612.023438 822.351562 613.867188 820.039062 615.671875 C 810.210938 623.324219 803.808594 630.242188 801.042969 636.59375 C 798.832031 641.691406 796.195312 647.011719 792.746094 652.273438 C 789.296875 657.535156 785.03125 662.699219 779.574219 667.445312 L 779.570312 667.464844 L 779.527344 667.503906 C 777.878906 668.933594 776.175781 670.25 774.570312 671.476562 C 770.984375 674.257812 767.832031 676.679688 766.457031 679.636719 C 763.398438 686.230469 758.9375 692.507812 754.011719 699.449219 C 750.722656 704.09375 747.207031 709.042969 743.769531 714.582031 C 742.855469 716.050781 742.4375 717.496094 742.484375 718.835938 C 742.878906 732.890625 770.425781 723.207031 775.527344 720.550781 C 788.820312 713.632812 799.878906 699.941406 807.953125 683.230469 C 824.109375 674.050781 840.613281 660.464844 843.894531 640.925781 C 873.726562 640.875 895.949219 633.398438 910.578125 618.496094 C 905.128906 615.582031 900.757812 612.550781 897.910156 603.523438 C 927.351562 622.671875 947.054688 623.492188 964.699219 604.050781 C 955.097656 605.382812 944.777344 603.59375 933.035156 588.128906 C 949.746094 604.015625 987.457031 604.6875 983.492188 574.726562 Z M 968.582031 650.71875 C 969.410156 652.125 971.039062 653.515625 973.164062 654.457031 C 976.730469 656.039062 980.339844 655.738281 981.414062 653.828125 C 982.039062 654.871094 982.230469 655.9375 981.832031 656.832031 C 980.914062 658.910156 977.171875 659.285156 973.484375 657.65625 C 969.792969 656.019531 967.554688 653 968.472656 650.921875 Z M 995.242188 654.765625 C 996.566406 657.605469 996.367188 659.609375 994.683594 660.785156 C 992.910156 654.375 988.664062 649.523438 981.929688 646.246094 C 985.921875 646.871094 988.15625 647.539062 990.964844 650.667969 L 991.757812 651.453125 C 992.199219 647.917969 990.359375 644.308594 986.1875 640.652344 C 991.402344 642.617188 999.421875 647.824219 995.242188 654.765625 Z M 959.238281 657.96875 C 967.132812 665.785156 976.410156 670.070312 992.039062 666.175781 C 976.527344 676.578125 967.90625 670.8125 959.238281 657.96875 Z M 953.660156 721.539062 C 949.109375 722.003906 944.074219 720.96875 938.8125 717.933594 C 929.140625 712.367188 931.964844 705.109375 936.570312 697.097656 C 937.167969 696.074219 937.769531 695.066406 938.378906 694.039062 L 939.285156 692.523438 C 940.34375 690.75 941.25 689.042969 942.117188 687.410156 C 946.773438 678.699219 950.503906 671.722656 961.972656 675.226562 C 962.402344 675.363281 962.929688 675.507812 963.492188 675.664062 C 966.996094 676.632812 971.355469 677.847656 972.859375 681.757812 C 975.488281 688.636719 975.5625 695.996094 973.742188 702.476562 C 972.320312 707.476562 969.773438 711.96875 966.347656 715.34375 C 962.898438 718.757812 958.5625 721.027344 953.660156 721.539062 Z M 990.933594 521.304688 C 985.421875 505.003906 993.777344 493.972656 1004.230469 486.632812 C 996.839844 495.222656 990.132812 509.953125 990.933594 521.304688 Z M 1111.574219 419.496094 C 1126.425781 406.195312 1132.457031 389.71875 1129.648438 370.058594 C 1135.953125 369.835938 1143.484375 365.355469 1152.242188 356.625 C 1133.089844 385.085938 1124.277344 418.339844 1134.003906 423.164062 C 1140.234375 426.253906 1155.011719 414.582031 1176.578125 392.617188 C 1194.707031 374.171875 1214.714844 357.945312 1236.621094 343.964844 C 1194.074219 378.65625 1164.386719 414.585938 1147.558594 451.769531 C 1138.871094 436.316406 1126.886719 425.546875 1111.574219 419.496094 Z M 1247.652344 362.945312 L 1245.371094 365.527344 C 1193.253906 408.492188 1163.617188 442.136719 1153.871094 470.296875 C 1153.917969 465.28125 1152.90625 461.757812 1150.839844 459.738281 C 1167.542969 426.488281 1199.828125 394.234375 1247.652344 362.945312 " fill-opacity="1" fill-rule="nonzero"/></g></g></g></g><g clip-path="url(#d27dcbb998)"><g clip-path="url(#87fdbbe29e)"><g clip-path="url(#f2a5b21a73)"><g clip-path="url(#5084a61284)"><path fill="#d6a76d" d="M 952.015625 645.121094 C 954.828125 640.617188 957.410156 632.847656 960.136719 629.808594 C 969.714844 619.167969 971.871094 618.007812 976.058594 603.800781 C 963.828125 615.199219 958.078125 618.335938 947 623.789062 C 954.546875 624.355469 952.269531 639.546875 952.015625 645.121094 " fill-opacity="1" fill-rule="nonzero"/></g></g></g></g><g clip-path="url(#e75be09ea5)"><g clip-path="url(#580cf9b3be)"><g clip-path="url(#02953dcca9)"><g clip-path="url(#d1daca8f37)"><path fill="#5d5242" d="M 624.089844 707.539062 C 626.675781 708.34375 629.273438 709.144531 631.863281 709.929688 C 634.605469 710.757812 637.34375 711.585938 640.082031 712.382812 C 652.644531 716.074219 665.304688 719.488281 678.023438 722.390625 L 678.203125 722.433594 C 683.179688 723.722656 688.132812 725.316406 692.832031 727.414062 C 696.808594 729.191406 700.671875 731.351562 704.128906 734.03125 C 705.765625 735.121094 707.402344 736.191406 709.085938 737.222656 C 710.800781 738.285156 712.53125 739.320312 714.285156 740.308594 C 723.554688 745.566406 733.296875 749.917969 743.390625 753.34375 L 744.371094 753.675781 L 745.128906 754.390625 C 748.546875 757.644531 750.734375 761.757812 749.585938 766.539062 C 746.710938 778.523438 725.085938 788.203125 714.507812 789.101562 C 703.332031 790.039062 692.238281 786.691406 682.300781 781.828125 L 682.167969 781.761719 C 681.4375 781.398438 680.707031 781.066406 679.953125 780.746094 C 679.144531 780.410156 678.316406 780.101562 677.492188 779.824219 C 672.515625 778.136719 667.148438 777.382812 661.914062 777.113281 C 660.941406 777.109375 659.976562 777.082031 658.996094 777.066406 C 659.945312 778.148438 660.898438 779.214844 661.867188 780.25 C 671.027344 790.097656 681.683594 798.472656 693.042969 805.644531 L 693.464844 805.914062 C 694.042969 806.285156 694.621094 806.6875 695.160156 807.109375 C 695.863281 807.648438 696.535156 808.21875 697.179688 808.824219 C 700.824219 812.222656 703.667969 816.59375 705.949219 821.003906 C 708.832031 826.089844 712.457031 830.71875 716.742188 834.6875 C 721.183594 838.761719 726.1875 842.101562 731.640625 844.679688 L 732.050781 844.875 L 732.40625 845.136719 C 736.253906 847.972656 740.78125 852.089844 741.386719 857.132812 C 742.0625 862.640625 738.25 866.421875 733.707031 868.824219 L 733.464844 868.960938 L 733.191406 869.070312 C 725.101562 872.195312 716.550781 873.585938 707.941406 872.019531 C 707.574219 871.957031 707.214844 871.890625 706.851562 871.808594 C 708.199219 873.429688 709.269531 875.285156 709.800781 877.316406 C 710.523438 880.019531 710.222656 882.761719 708.847656 885.210938 C 708.28125 886.199219 707.578125 887.089844 706.761719 887.886719 C 705.328125 889.257812 703.808594 890.5 702.171875 891.617188 C 696.722656 895.34375 690.507812 897.074219 683.964844 895.925781 C 677.332031 894.761719 671.636719 890.878906 667.054688 886.105469 C 664.941406 883.890625 663.03125 881.480469 661.308594 878.945312 L 660.445312 877.703125 C 658.898438 875.421875 652.265625 865.238281 649.476562 864.804688 C 645.3125 864.128906 641.25 863.179688 637.285156 861.710938 C 632.601562 859.953125 628.292969 857.535156 624.375 854.4375 C 620.574219 851.429688 616.519531 848.203125 612.3125 845.792969 C 610.128906 844.554688 607.074219 843.0625 604.480469 843.277344 C 598.628906 843.769531 592.609375 843.800781 586.804688 842.773438 C 584.234375 842.308594 581.761719 841.644531 579.363281 840.75 C 580.15625 841.363281 580.910156 842.019531 581.636719 842.6875 C 584.074219 844.941406 586.152344 847.480469 587.824219 850.34375 C 590.039062 854.136719 592.402344 857.910156 594.988281 861.464844 C 595.355469 861.96875 595.726562 862.457031 596.105469 862.957031 C 596.203125 863.078125 596.296875 863.214844 596.398438 863.332031 C 609.054688 868.144531 620.859375 875.203125 631.492188 883.53125 L 631.867188 883.828125 L 631.878906 883.851562 C 633.34375 885.039062 634.703125 886.367188 635.921875 887.816406 C 637.15625 889.292969 638.242188 890.902344 639.117188 892.613281 C 643.445312 901.023438 642.414062 910.691406 637.628906 918.664062 L 637.539062 918.839844 L 637.417969 918.988281 C 636.414062 920.640625 635.238281 922.179688 633.9375 923.613281 C 632.597656 925.058594 631.136719 926.378906 629.539062 927.539062 C 623.019531 932.285156 615.046875 933.964844 607.113281 933.699219 C 607.425781 935.792969 607.839844 937.894531 608.230469 939.957031 C 608.546875 941.636719 608.871094 943.328125 609.15625 945.007812 C 609.429688 946.582031 609.535156 948.191406 609.425781 949.792969 C 609.195312 953.054688 608.074219 956.152344 605.929688 958.640625 C 603.699219 961.207031 600.699219 962.75 597.355469 963.328125 C 595.835938 963.585938 594.265625 963.648438 592.695312 963.539062 L 592.128906 963.496094 L 592.105469 963.476562 C 589.847656 963.28125 587.617188 962.816406 585.480469 962.074219 C 583.332031 961.339844 581.296875 960.332031 579.394531 959.078125 C 569.890625 952.792969 565.007812 941.1875 562.453125 930.328125 C 559.480469 930.601562 556.5 930.496094 553.515625 930.140625 C 549.628906 929.675781 545.804688 928.8125 542.023438 927.859375 C 527.898438 924.324219 513.515625 923.441406 499.042969 924.980469 C 484.066406 926.582031 469.476562 930.679688 455.542969 936.359375 L 455.515625 936.375 C 453.238281 937.285156 450.875 938.019531 448.464844 938.5 C 447.65625 938.671875 446.839844 938.800781 446.027344 938.910156 C 444.035156 940.074219 441.960938 941.09375 439.796875 941.984375 L 439.597656 942.050781 C 436.164062 944.792969 432.589844 947.34375 428.882812 949.683594 C 425.117188 952.058594 421.199219 954.199219 417.144531 956.039062 C 395.515625 965.910156 373.175781 965.984375 351.859375 954.949219 C 344.679688 951.253906 337.414062 947.6875 330.019531 944.417969 C 298.800781 984.597656 293.960938 1037.597656 288.84375 1086.523438 L 288.839844 1086.542969 C 285.761719 1116.070312 277.441406 1144.023438 265.625 1171.167969 C 264.160156 1174.523438 262.652344 1177.855469 261.105469 1181.148438 C 212.734375 1251.132812 137.890625 1259.988281 124.277344 1172.554688 C 118.226562 1133.707031 104.027344 1111.027344 74.789062 1105.550781 C 85.65625 1085.1875 86.546875 1063.066406 83.515625 1038.230469 C 82.785156 1032.289062 83.527344 1026.261719 85.410156 1020.175781 C 89.199219 1011.59375 94.753906 1003.34375 100.175781 996.15625 C 110.761719 982.113281 123.175781 968.878906 135.449219 956.296875 C 141.445312 950.148438 145.941406 942.722656 149.558594 934.984375 C 153.625 926.277344 156.707031 917.035156 159.542969 907.863281 C 162.496094 898.34375 168.617188 889.503906 174.152344 881.28125 C 176.554688 877.726562 178.949219 874.160156 181.226562 870.535156 C 187.765625 860.105469 195.1875 849.242188 203.847656 840.457031 C 210.316406 833.878906 217.917969 828.125 226.890625 825.574219 C 233.105469 823.816406 239.355469 820.414062 244.878906 817.105469 C 252.6875 812.4375 260.230469 807.175781 267.746094 802.054688 L 268.207031 801.746094 C 270.992188 799.847656 273.890625 798.125 276.832031 796.503906 C 280.039062 794.765625 283.332031 793.152344 286.652344 791.664062 C 306.878906 782.65625 330.003906 777.195312 351.75 773.328125 C 363.140625 768.375 374.21875 762.726562 384.949219 756.46875 C 395.265625 750.457031 405.246094 743.890625 414.9375 736.917969 C 427.738281 727.671875 446.710938 715.527344 462.695312 713.40625 C 464.976562 713.113281 467.277344 713 469.558594 713.183594 C 471.652344 713.34375 473.738281 713.75 475.796875 714.519531 L 475.886719 714.566406 C 482.082031 716.894531 488.476562 718.8125 494.820312 720.726562 C 499.589844 722.164062 504.351562 723.609375 509.085938 725.179688 C 514.46875 724.761719 522.464844 721.578125 527.410156 719.792969 C 530.3125 718.75 533.222656 717.71875 536.132812 716.71875 C 544.394531 713.890625 552.863281 711.820312 561.4375 710.277344 C 569.492188 708.820312 577.601562 707.828125 585.726562 707.0625 C 587.496094 706.234375 589.300781 705.464844 591.136719 704.804688 C 593.097656 704.089844 595.101562 703.476562 597.136719 703.003906 C 606.746094 700.792969 615.949219 701.894531 624.089844 707.539062 Z M 495.691406 859.636719 C 502.730469 861.882812 509.996094 863.179688 517.472656 863.226562 C 519.910156 863.242188 522.367188 863.121094 524.785156 862.875 C 523.878906 861.722656 523.023438 860.523438 522.214844 859.296875 C 518.671875 858.226562 515.269531 856.742188 512.125 854.777344 C 510.117188 853.535156 508.234375 852.09375 506.492188 850.507812 C 504.507812 852.582031 502.34375 854.511719 500.117188 856.296875 C 498.683594 857.460938 497.199219 858.570312 495.691406 859.636719 " fill-opacity="1" fill-rule="evenodd"/></g></g></g></g><g clip-path="url(#ebbe9d9c53)"><g clip-path="url(#ffac5a7487)"><g clip-path="url(#10328c6478)"><g clip-path="url(#d0a97ee0be)"><path fill="#fbca8e" d="M 608.25 919.378906 C 612.128906 920.785156 615.648438 919.011719 618.078125 915.871094 C 619.203125 914.40625 620.09375 912.644531 620.683594 910.769531 C 621.265625 908.882812 621.550781 906.894531 621.460938 904.945312 C 621.230469 900.3125 618.839844 895.980469 613.308594 894.351562 L 613.289062 894.347656 L 613.28125 894.335938 C 612.027344 893.96875 610.765625 893.652344 609.519531 893.359375 C 608.296875 893.082031 607.085938 892.847656 605.902344 892.664062 C 599.890625 891.703125 594.566406 891.976562 590.105469 893.488281 C 588.046875 894.179688 586.398438 896.257812 585.324219 898.867188 C 584.4375 901.054688 583.945312 903.605469 583.972656 906.035156 C 583.988281 908.441406 584.488281 910.730469 585.558594 912.445312 C 586.476562 913.894531 587.796875 914.9375 589.59375 915.300781 C 591.679688 915.707031 593.589844 916.019531 595.386719 916.304688 C 599.675781 917 603.367188 917.605469 608.25 919.378906 " fill-opacity="1" fill-rule="nonzero"/></g></g></g></g><g clip-path="url(#0eb65109d0)"><g clip-path="url(#dc06c6934d)"><g clip-path="url(#bc56d10edc)"><g clip-path="url(#8b39059dd5)"><path fill="#fbca8e" d="M 366.75 773.617188 C 375.054688 771.878906 384.414062 769.527344 394.652344 766.242188 C 409.527344 761.492188 426.316406 754.796875 444.589844 745.226562 C 455.421875 739.542969 479.386719 730.875 489.300781 727.828125 C 455.75 706.621094 423.964844 740.375 419.953125 743.269531 C 410.324219 750.207031 399.003906 755.847656 388.246094 762.109375 C 381.359375 766.128906 374.203125 769.980469 366.75 773.617188 " fill-opacity="1" fill-rule="nonzero"/></g></g></g></g><g clip-path="url(#a00eb98696)"><g clip-path="url(#d40174effd)"><g clip-path="url(#bcf1493757)"><g clip-path="url(#9c57e3335e)"><path fill="#d6a76d" d="M 508.5 843.238281 C 519.722656 848.625 529.707031 849.824219 538.457031 846.847656 C 545.78125 852.394531 555.257812 854.851562 566.925781 854.222656 C 572.625 854.070312 576.792969 854.789062 579.414062 856.382812 C 571.320312 847.601562 563.945312 841.601562 557.292969 838.386719 C 552.039062 832.503906 543.050781 830.296875 530.285156 831.738281 C 537.898438 828.136719 547.46875 827.472656 559.019531 829.75 L 560.289062 831.652344 C 563.4375 836.363281 565.777344 839.898438 570.742188 842.796875 C 573.121094 844.195312 575.304688 845.722656 577.210938 847.484375 C 579.109375 849.234375 580.773438 851.246094 582.1875 853.652344 C 584.578125 857.757812 586.773438 861.152344 588.671875 863.855469 C 581 861.503906 573.355469 860.121094 565.867188 859.777344 C 561.773438 859.589844 557.730469 859.707031 553.753906 860.152344 C 549.761719 860.589844 545.855469 861.34375 542.0625 862.417969 L 542.039062 862.429688 C 540.082031 862.984375 537.96875 863.546875 535.695312 864.074219 C 534.355469 863.339844 533.007812 862.246094 531.652344 860.808594 C 530.019531 859.113281 528.398438 856.917969 526.75 854.265625 L 526.375 853.667969 L 525.6875 853.484375 C 521.96875 852.53125 518.597656 851.121094 515.589844 849.238281 C 512.941406 847.59375 510.585938 845.597656 508.5 843.238281 " fill-opacity="1" fill-rule="evenodd"/></g></g></g></g><g clip-path="url(#f7a299566c)"><g clip-path="url(#b4d0e80387)"><g clip-path="url(#8cc12eee3c)"><g clip-path="url(#e157169ac3)"><path fill="#d6a76d" d="M 604.535156 948.820312 C 604.726562 949.9375 604.78125 951.015625 604.703125 952.027344 C 604.5625 954.046875 602.382812 955.917969 601.261719 957.21875 C 600.160156 958.496094 598.554688 959.390625 596.53125 959.746094 C 595.605469 959.90625 594.582031 959.945312 593.457031 959.867188 L 593.089844 959.839844 C 591.257812 959.6875 589.523438 959.320312 587.898438 958.75 C 586.257812 958.183594 584.726562 957.417969 583.292969 956.484375 C 576.113281 951.726562 570.1875 941.808594 567.515625 928.917969 C 571.519531 928.554688 603.265625 941.457031 604.535156 948.820312 " fill-opacity="1" fill-rule="evenodd"/></g></g></g></g><g clip-path="url(#c270574a14)"><g clip-path="url(#539d88361e)"><g clip-path="url(#40fca510e6)"><g clip-path="url(#12fc51f912)"><path fill="#d6a76d" d="M 527.128906 812.785156 C 533.644531 816.96875 554.78125 822.054688 558.429688 823.382812 L 558.484375 823.398438 L 558.546875 823.429688 C 563.714844 825.3125 574.1875 825.121094 580.828125 829.074219 C 584.242188 831.089844 588.011719 832.527344 592.445312 833.316406 C 596.96875 834.117188 602.191406 834.285156 608.433594 833.746094 C 612.09375 833.449219 615.921875 834.742188 620.0625 837.109375 C 623.992188 839.359375 628.238281 842.589844 632.929688 846.296875 C 636.613281 849.210938 640.375 851.191406 644.066406 852.578125 C 647.789062 853.960938 651.488281 854.769531 655.011719 855.324219 C 664.941406 856.921875 664.019531 865.910156 666.761719 870.550781 C 671.636719 878.808594 676.195312 884.128906 689.597656 886.472656 C 694.054688 887.246094 694.097656 889.226562 698.492188 886.222656 C 699.730469 885.378906 700.976562 884.355469 702.226562 883.167969 C 702.625 882.785156 702.925781 882.390625 703.15625 882.007812 L 703.148438 881.996094 C 703.679688 881.058594 703.769531 880.039062 703.492188 878.988281 C 703.183594 877.796875 702.398438 876.558594 701.261719 875.363281 C 700.179688 874.242188 698.808594 873.195312 697.195312 872.285156 L 697.183594 872.289062 L 697.167969 872.265625 C 696.660156 871.984375 696.132812 871.648438 695.574219 871.25 C 695.035156 870.855469 694.441406 870.398438 693.789062 869.863281 C 690.683594 867.304688 686.519531 863.042969 681.453125 856.847656 C 680.101562 856.375 678.78125 855.839844 677.488281 855.238281 C 669.046875 851.273438 661.582031 844.421875 655.121094 834.679688 C 643.855469 835.175781 634.539062 832.835938 626.355469 828.234375 C 617.976562 823.519531 606.3125 819.480469 599.4375 810.6875 L 599.390625 810.636719 C 598.648438 809.691406 597.839844 808.878906 596.96875 808.183594 C 596.082031 807.460938 595.140625 806.867188 594.148438 806.351562 C 588.910156 803.667969 582.285156 803.582031 576.472656 804.449219 C 573.542969 804.886719 570.78125 805.308594 568.1875 805.699219 C 565.175781 806.152344 562.453125 806.535156 559.976562 806.847656 C 546.046875 810.824219 535.667969 811.738281 527.128906 812.785156 " fill-opacity="1" fill-rule="nonzero"/></g></g></g></g><g clip-path="url(#b86939bddd)"><g clip-path="url(#a5961bb463)"><g clip-path="url(#ac6d6b276f)"><g clip-path="url(#7a7c323b38)"><path fill="#d6a76d" d="M 532.058594 799.601562 C 539.441406 804.164062 548.496094 802.792969 572.167969 799.183594 C 574.746094 798.804688 577.507812 798.378906 580.449219 797.933594 C 586.851562 796.988281 594.246094 797.113281 600.257812 800.203125 C 601.464844 800.820312 602.609375 801.550781 603.675781 802.421875 C 604.773438 803.292969 605.765625 804.289062 606.667969 805.429688 L 606.675781 805.441406 L 606.726562 805.503906 C 613.324219 813.945312 620.164062 820.707031 628.085938 825.15625 C 635.945312 829.578125 644.941406 831.765625 655.925781 831.109375 L 656.957031 831.050781 L 657.507812 831.914062 C 663.746094 841.542969 670.902344 848.25 678.984375 852.054688 C 680.316406 852.664062 681.675781 853.210938 683.03125 853.667969 L 683.15625 853.722656 C 683.382812 853.785156 683.597656 853.851562 683.816406 853.933594 C 685.429688 854.449219 687.113281 854.84375 688.84375 855.148438 L 689.144531 855.203125 L 689.648438 855.28125 L 690.027344 855.640625 C 695.976562 861.0625 702.339844 864.378906 709.109375 865.589844 C 715.867188 866.808594 723.066406 865.949219 730.742188 863.011719 C 733.738281 861.40625 735.117188 859.71875 734.898438 857.933594 C 732.6875 839.78125 724.078125 864.421875 724.324219 848.226562 C 721.8125 846.792969 719.441406 845.246094 717.199219 843.5625 C 712.164062 848.433594 704.121094 842.625 693.074219 826.117188 C 692.449219 817.226562 686.476562 811.289062 675.167969 808.300781 C 660.691406 812.460938 647.007812 806.261719 634.121094 789.699219 C 622.773438 778.679688 610.949219 773.855469 598.664062 775.183594 C 575.589844 793.402344 552.371094 787.414062 532.058594 799.601562 " fill-opacity="1" fill-rule="nonzero"/></g></g></g></g><g clip-path="url(#e4e07efa2c)"><g clip-path="url(#8835739331)"><g clip-path="url(#e6d08766c0)"><g clip-path="url(#fb99140904)"><path fill="#eaba7a" d="M 261.097656 1181.167969 C 275.09375 1136.078125 271.902344 1109.109375 269.988281 1092.121094 C 260.9375 1119.15625 249.445312 1140.621094 235.53125 1156.503906 C 250.929688 1117.195312 257.972656 1084.46875 256.664062 1058.320312 C 287.671875 1044.324219 271.433594 1002.46875 275.28125 977.890625 C 271.5 987.660156 268.828125 998.246094 267.242188 1009.644531 C 261.507812 987.4375 272.6875 955.507812 291.015625 941.855469 C 279.46875 938.921875 272.371094 953.179688 267.414062 962.199219 C 268.917969 957.121094 268.910156 944.054688 262.179688 952.859375 C 257.648438 958.8125 246.097656 974.75 243.699219 982.894531 C 242.476562 973.707031 248.128906 956.792969 253.773438 949.207031 C 233.652344 928.378906 198.015625 1000.144531 180.929688 1010.632812 C 199.46875 986.917969 208.609375 957.605469 231.074219 937.164062 C 220.339844 940.421875 207.960938 953.128906 193.96875 975.28125 L 187.867188 979.902344 C 203.261719 957.304688 205.894531 942.566406 195.769531 935.695312 C 247.082031 928.449219 275.183594 887.84375 317.851562 920.871094 C 292.527344 911.648438 272.25 912.046875 257.007812 922.058594 C 270.304688 918.535156 286.367188 919.160156 301.316406 923.355469 C 312.265625 926.453125 322.53125 931.558594 331.933594 936.675781 L 331.941406 936.6875 C 358.683594 951.300781 371.84375 959.546875 408.394531 944.675781 C 396.441406 941.273438 382.515625 937.722656 373.003906 922.4375 C 388.78125 934.183594 407.359375 935.320312 421.160156 934.273438 C 411.195312 929.585938 396.390625 915.699219 391.757812 906.015625 C 395.886719 909.824219 399.925781 913.074219 403.878906 915.789062 L 403.851562 915.742188 L 404.121094 915.96875 C 425.988281 930.886719 445.257812 929.375 461.921875 911.425781 C 471.238281 917.324219 480.835938 920.011719 490.683594 919.507812 C 493.242188 919.089844 495.796875 918.753906 498.363281 918.488281 C 513.488281 916.867188 528.589844 917.753906 543.625 921.519531 C 547.386719 922.46875 550.910156 923.246094 554.277344 923.640625 C 557.582031 924.035156 560.777344 924.066406 563.945312 923.542969 C 564.625 923.425781 565.300781 923.328125 565.976562 923.230469 L 566.023438 923.234375 L 566.035156 923.230469 C 571.292969 922.550781 574.066406 920.613281 579.242188 921.140625 C 585.007812 921.726562 593.183594 924.90625 599.007812 926.128906 C 610.121094 928.449219 619.257812 926.9375 625.710938 922.246094 C 626.933594 921.34375 628.085938 920.328125 629.128906 919.195312 C 630.148438 918.078125 631.085938 916.816406 631.917969 915.453125 L 631.933594 915.429688 L 631.945312 915.421875 C 635.65625 909.332031 636.5625 901.972656 633.304688 895.609375 C 632.664062 894.367188 631.863281 893.152344 630.90625 891.996094 C 629.9375 890.847656 628.785156 889.738281 627.460938 888.695312 L 627.453125 888.679688 C 614.941406 878.863281 590.570312 858.347656 576.335938 874.503906 C 565.25 865.351562 550.066406 864.65625 530.785156 872.386719 C 444.851562 872.476562 465.769531 853.734375 405.550781 846.875 C 430.746094 839.65625 458.941406 847.042969 459.148438 847.101562 C 475.410156 837.65625 487.929688 820.074219 496.71875 794.375 C 496.707031 802.085938 495.480469 809.609375 493.0625 816.96875 C 494.214844 815.839844 495.453125 814.742188 496.777344 813.71875 C 503.46875 808.511719 510.714844 805.464844 517.582031 802.589844 C 528.054688 798.171875 537.589844 794.179688 542.085938 783.339844 L 542.597656 782.109375 L 543.902344 782.257812 C 554.699219 783.457031 568.707031 779.753906 585.890625 771.152344 C 589.230469 769.480469 592.742188 767.597656 596.414062 765.5 C 600.09375 763.398438 603.851562 761.140625 607.671875 758.71875 L 607.75 758.660156 C 607.832031 758.613281 607.898438 758.558594 607.976562 758.53125 L 607.988281 758.523438 C 608.074219 758.476562 608.175781 758.433594 608.265625 758.398438 L 608.296875 758.394531 L 608.320312 758.382812 L 608.390625 758.359375 L 608.417969 758.359375 L 608.433594 758.351562 L 608.460938 758.347656 L 608.476562 758.34375 L 608.609375 758.328125 L 608.652344 758.320312 L 608.714844 758.316406 L 608.726562 758.3125 L 608.777344 758.316406 L 608.808594 758.3125 L 608.820312 758.304688 C 609.089844 758.308594 609.367188 758.375 609.621094 758.519531 L 609.632812 758.511719 L 609.78125 758.601562 C 609.824219 758.625 609.863281 758.664062 609.898438 758.695312 L 609.917969 758.699219 L 609.921875 758.710938 L 609.949219 758.730469 C 616.816406 764.285156 627.691406 767.886719 642.589844 769.535156 C 644.605469 769.757812 646.683594 769.945312 648.8125 770.089844 L 648.851562 770.101562 L 648.878906 770.097656 L 648.898438 770.101562 L 648.929688 770.101562 C 649.90625 770.167969 650.867188 770.242188 651.847656 770.289062 C 655.117188 770.453125 658.515625 770.558594 662.046875 770.570312 L 662.089844 770.5625 L 662.175781 770.578125 C 668.746094 770.902344 674.554688 771.925781 679.601562 773.625 C 680.589844 773.96875 681.542969 774.332031 682.472656 774.710938 C 683.410156 775.101562 684.316406 775.523438 685.179688 775.957031 L 685.1875 775.96875 C 687.867188 777.273438 690.480469 778.382812 693.027344 779.320312 C 687.007812 773.269531 678.238281 769.265625 666.734375 767.324219 C 656.539062 767.613281 646.472656 763.949219 636.546875 756.335938 C 646.074219 761.175781 657.285156 763.632812 670.222656 763.726562 C 674.605469 763.164062 681.273438 766.464844 690.214844 773.605469 C 693.195312 776.761719 696.167969 779.285156 699.128906 781.195312 C 704.34375 782.523438 709.292969 782.988281 713.957031 782.585938 C 730.859375 781.160156 752.761719 769.535156 742.382812 759.15625 C 739.949219 756.742188 729.890625 757.855469 720.40625 753.292969 C 703.226562 745.039062 682.800781 730.371094 676.566406 728.761719 C 651.59375 723.039062 675.589844 727.089844 641.648438 724.550781 C 634.617188 717.277344 629.316406 718.996094 625.730469 729.703125 C 623.207031 720.683594 615.730469 713.664062 603.308594 708.621094 C 601.78125 708.757812 600.210938 709.011719 598.609375 709.382812 C 596.894531 709.78125 595.148438 710.3125 593.363281 710.941406 C 591.558594 711.601562 589.71875 712.390625 587.804688 713.300781 L 587.78125 713.3125 L 587.480469 713.453125 L 587.164062 713.488281 C 578.996094 714.261719 570.75 715.238281 562.601562 716.699219 C 548.582031 719.234375 534.90625 722.703125 522.773438 730.15625 C 553.957031 720.363281 569.300781 722.460938 598.613281 716.144531 C 592.359375 719.675781 587.476562 722.300781 583.929688 724.027344 C 566.753906 721.808594 537.246094 724.839844 515.257812 744.550781 C 507.964844 738.21875 499.867188 735.253906 490.976562 735.65625 C 502.308594 734.042969 506.296875 734.800781 516.035156 736.484375 C 502.753906 725.277344 497.84375 728.859375 477.226562 735.023438 C 467.328125 737.984375 457.167969 742.621094 446.230469 748.347656 C 427.777344 758.015625 410.785156 764.796875 395.722656 769.609375 C 380.648438 774.425781 367.515625 777.265625 356.785156 779.097656 C 328.859375 783.832031 309.402344 794.53125 292.347656 802.125 C 288.992188 803.632812 285.859375 805.171875 282.984375 806.738281 C 280.074219 808.324219 277.378906 809.964844 274.886719 811.648438 L 274.441406 811.949219 C 265.933594 817.789062 258.246094 823.023438 251.25 827.214844 C 244.132812 831.472656 234.660156 830.175781 228.679688 831.867188 C 221.863281 833.796875 215.285156 838.160156 208.5 845.042969 C 201.59375 852.058594 197.511719 866.171875 189.78125 878.5 C 187.3125 882.441406 184.90625 886.011719 182.59375 889.4375 C 176.632812 898.28125 177.046875 903.019531 174.539062 911.144531 C 171.484375 920.992188 168.261719 930.460938 164.238281 939.078125 C 160.167969 947.789062 155.273438 955.648438 148.871094 962.199219 C 128.890625 982.679688 100.007812 994.011719 85.417969 1020.15625 C 83.53125 1026.242188 82.777344 1032.277344 83.515625 1038.230469 C 86.546875 1063.066406 85.65625 1085.1875 74.789062 1105.550781 C 104.027344 1111.027344 118.226562 1133.707031 124.277344 1172.554688 C 137.902344 1259.984375 212.722656 1251.140625 261.097656 1181.167969 Z M 465.488281 872.761719 L 470.214844 873.589844 C 472.757812 878.328125 476.859375 880.035156 482.53125 878.722656 C 489.199219 877.261719 495.5 877.675781 501.429688 879.949219 C 490.226562 879.410156 479.808594 881.9375 470.175781 887.527344 C 471.21875 881.660156 469.667969 876.742188 465.488281 872.761719 Z M 568.59375 909.167969 L 566.523438 906.164062 C 563.355469 899.65625 565.011719 894.476562 567.867188 886.996094 C 559.539062 882.535156 548.800781 883.066406 535.621094 888.589844 C 548.039062 879.734375 561.769531 877.8125 576.789062 882.839844 C 568.960938 889.234375 566.222656 898.011719 568.59375 909.167969 Z M 621.464844 917.667969 C 618.289062 921.785156 613.582031 924.105469 608.34375 922.203125 C 603.164062 920.324219 599.207031 919.679688 594.621094 918.929688 C 592.667969 918.625 590.601562 918.285156 588.21875 917.8125 C 585.613281 917.304688 583.699219 915.800781 582.414062 913.734375 C 581.023438 911.503906 580.371094 908.621094 580.34375 905.632812 C 580.320312 902.675781 580.90625 899.59375 582 896.957031 C 583.382812 893.570312 585.628906 890.835938 588.492188 889.863281 C 593.703125 888.097656 599.890625 887.78125 606.804688 888.878906 C 608.144531 889.085938 609.519531 889.355469 610.910156 889.679688 C 612.277344 889.984375 613.695312 890.355469 615.144531 890.785156 L 615.183594 890.796875 C 622.269531 892.875 625.324219 898.402344 625.609375 904.308594 C 625.722656 906.691406 625.386719 909.121094 624.671875 911.417969 C 623.949219 913.699219 622.855469 915.859375 621.464844 917.667969 " fill-opacity="1" fill-rule="nonzero"/></g></g></g></g><g clip-path="url(#0127d3eb19)"><g clip-path="url(#7308a68e15)"><g clip-path="url(#075431dde5)"><g clip-path="url(#6fa7cdd82a)"><path fill="#fbca8e" d="M 174.542969 911.125 C 177.28125 915.304688 180.519531 918.632812 184.214844 920.332031 C 191.757812 923.804688 202.460938 925.167969 210.605469 919.308594 C 218.75 913.449219 218.539062 907.058594 230.972656 904.359375 C 243.386719 901.65625 247.792969 902.871094 251.796875 896.265625 C 255.792969 889.644531 259.113281 881.265625 250.886719 876.625 C 242.675781 871.976562 237.9375 869.085938 238.199219 862.429688 C 238.386719 857.492188 235.566406 840.367188 231.515625 831.292969 C 230.511719 831.429688 229.550781 831.609375 228.679688 831.867188 C 221.863281 833.796875 215.285156 838.160156 208.5 845.042969 C 201.59375 852.058594 197.511719 866.171875 189.78125 878.5 C 187.3125 882.441406 184.90625 886.011719 182.59375 889.4375 C 176.644531 898.277344 177.046875 903.019531 174.542969 911.125 " fill-opacity="1" fill-rule="evenodd"/></g></g></g></g><g clip-path="url(#61f81435f7)"><g clip-path="url(#9c78dae8c2)"><g clip-path="url(#998558d52c)"><g clip-path="url(#8154e6fd80)"><path fill="#fbca8e" d="M 94.457031 1035.421875 C 96.28125 1023.570312 91.433594 1016.980469 99.769531 1012.554688 C 113.257812 1005.414062 129.65625 987.585938 143.597656 984.300781 C 156.71875 981.191406 160.679688 985.457031 148.339844 994.316406 C 136 1003.171875 128.835938 1006.917969 124.355469 1013.808594 C 119.882812 1020.683594 114.714844 1025.773438 111.980469 1035.710938 C 109.226562 1045.644531 92.613281 1047.269531 94.457031 1035.421875 " fill-opacity="1" fill-rule="evenodd"/></g></g></g></g><g clip-path="url(#d5c160f9fb)"><g clip-path="url(#63c7e63735)"><g clip-path="url(#ecd69e8f43)"><g clip-path="url(#a3986deefc)"><path fill="#fbca8e" d="M 384.097656 844.082031 C 403.628906 850.066406 409.484375 835.578125 417.863281 821.503906 C 433.171875 795.808594 413.816406 795.90625 391.171875 794.632812 C 374.042969 793.671875 358.6875 795.21875 348.734375 803.070312 C 333.5625 815.027344 334.695312 821.960938 347.96875 821.5 C 361.132812 821.039062 372.828125 840.628906 384.097656 844.082031 " fill-opacity="1" fill-rule="evenodd"/></g></g></g></g><g clip-path="url(#8412339441)"><g clip-path="url(#e8854c89c7)"><g clip-path="url(#ad36ef6b11)"><g clip-path="url(#afa72207ee)"><path fill="#fbca8e" d="M 478.03125 830.433594 C 475.824219 825.699219 474.011719 820.183594 475.28125 816.539062 C 477.910156 809.015625 480.503906 800.652344 477.730469 795.761719 C 474.957031 790.867188 466.101562 779.070312 483.226562 775.820312 C 500.351562 772.574219 515.703125 760.851562 523.28125 758.28125 C 530.875 755.707031 538.832031 753.765625 544.742188 754.304688 C 550.648438 754.832031 569.085938 747.820312 572.960938 744.765625 C 576.835938 741.710938 577.613281 743.839844 588.507812 740.25 C 599.402344 736.660156 611.6875 734.015625 616.972656 738.765625 C 622.265625 743.53125 636.546875 756.335938 636.546875 756.335938 C 644.90625 762.757812 653.367188 766.359375 661.933594 767.175781 C 661.933594 767.175781 661.960938 768.429688 661.9375 770.570312 C 658.445312 770.550781 655.074219 770.460938 651.847656 770.289062 C 650.867188 770.242188 649.90625 770.167969 648.929688 770.101562 L 648.898438 770.101562 L 648.878906 770.097656 L 648.851562 770.101562 L 648.8125 770.089844 C 646.683594 769.945312 644.605469 769.757812 642.589844 769.535156 C 627.691406 767.886719 616.816406 764.285156 609.949219 758.730469 L 609.921875 758.710938 L 609.917969 758.699219 L 609.898438 758.695312 C 609.863281 758.664062 609.824219 758.625 609.78125 758.601562 L 609.632812 758.511719 L 609.621094 758.519531 C 609.367188 758.375 609.089844 758.308594 608.820312 758.304688 L 608.808594 758.3125 L 608.777344 758.316406 L 608.726562 758.3125 L 608.714844 758.316406 L 608.652344 758.320312 L 608.609375 758.328125 L 608.476562 758.34375 L 608.460938 758.347656 L 608.433594 758.351562 L 608.417969 758.359375 L 608.390625 758.359375 L 608.320312 758.382812 L 608.296875 758.394531 L 608.265625 758.398438 C 608.175781 758.433594 608.074219 758.476562 607.988281 758.523438 L 607.976562 758.53125 C 607.898438 758.558594 607.832031 758.613281 607.75 758.660156 L 607.671875 758.71875 C 603.851562 761.140625 600.09375 763.398438 596.414062 765.5 C 592.742188 767.597656 589.230469 769.480469 585.890625 771.152344 C 568.707031 779.753906 554.699219 783.457031 543.902344 782.257812 L 542.597656 782.109375 L 542.085938 783.339844 C 537.589844 794.179688 528.054688 798.171875 517.582031 802.589844 C 510.714844 805.464844 503.46875 808.511719 496.777344 813.71875 C 495.453125 814.742188 494.214844 815.839844 493.0625 816.96875 C 495.480469 809.609375 496.707031 802.085938 496.71875 794.375 C 491.707031 809.035156 485.488281 821.0625 478.03125 830.433594 " fill-opacity="1" fill-rule="evenodd"/></g></g></g></g><g clip-path="url(#91f98e3310)"><g clip-path="url(#6ffad85017)"><g clip-path="url(#bac062ad40)"><g clip-path="url(#4fce1f5110)"><path fill="#fbca8e" d="M 391.757812 906.015625 C 379.101562 892.660156 365.109375 893.082031 349.789062 907.300781 C 336.585938 894.269531 323.828125 891.71875 310.796875 891.566406 C 266.914062 891.042969 291.796875 835.886719 327.511719 862.785156 C 345.21875 856.699219 364.132812 859.855469 382.214844 874.820312 C 389.664062 880.984375 395.164062 882.867188 401.5625 879 C 431.1875 861.101562 452.691406 859.355469 465.488281 872.761719 C 469.667969 876.742188 471.21875 881.660156 470.175781 887.527344 C 470.335938 894.804688 467.578125 902.769531 461.921875 911.425781 C 445.257812 929.375 425.988281 930.886719 404.121094 915.96875 L 403.851562 915.742188 L 403.878906 915.789062 C 399.925781 913.074219 395.886719 909.824219 391.757812 906.015625 " fill-opacity="1" fill-rule="evenodd"/></g></g></g></g><g clip-path="url(#6339371e9a)"><g clip-path="url(#87b21ff568)"><g clip-path="url(#b15cc098e4)"><g clip-path="url(#b35d5d5436)"><path fill="#fbca8e" d="M 747.078125 709.433594 C 754.753906 715.210938 765.503906 711.449219 779.324219 698.148438 C 784.351562 691.914062 787.203125 684.230469 787.855469 675.074219 C 814.007812 660.433594 823.5 641.628906 816.332031 618.660156 C 808.589844 625.148438 803.4375 631.074219 801.042969 636.59375 C 798.832031 641.691406 796.195312 647.011719 792.746094 652.273438 C 789.296875 657.535156 785.03125 662.699219 779.574219 667.445312 L 779.570312 667.464844 L 779.527344 667.503906 C 777.878906 668.933594 776.175781 670.25 774.570312 671.476562 C 770.984375 674.257812 767.832031 676.679688 766.457031 679.636719 C 763.398438 686.230469 758.9375 692.507812 754.011719 699.449219 C 751.769531 702.609375 749.429688 705.90625 747.078125 709.433594 " fill-opacity="1" fill-rule="evenodd"/></g></g></g></g><g clip-path="url(#dbb8dfc912)"><g clip-path="url(#7bf2e426a1)"><g clip-path="url(#4f217d1a1a)"><g clip-path="url(#1d4630b5ea)"><path fill="#fbca8e" d="M 975.5 576.6875 C 955.527344 570.6875 943.609375 563.027344 939.71875 553.703125 C 999.8125 535.421875 982.832031 485.316406 955.847656 489.410156 C 949.402344 499.640625 943.382812 508.992188 937.589844 517.183594 C 930.765625 526.855469 924.179688 534.988281 917.464844 541.132812 L 917.460938 541.121094 L 917.40625 541.164062 L 917.414062 541.175781 C 913.550781 544.703125 909.792969 547.628906 906.410156 550.261719 C 896.96875 557.617188 889.945312 569.875 891.601562 582.882812 C 889.589844 579.476562 885.183594 576.324219 884.277344 573.664062 C 878.675781 579.109375 873.09375 582.625 860.191406 589.925781 C 848.332031 596.636719 831.175781 601.699219 833.175781 618.113281 C 843.578125 641.742188 879.417969 587.503906 892.96875 592.714844 C 923.796875 604.550781 931.515625 609.003906 928.429688 583.339844 C 950.371094 596.402344 966.0625 594.191406 975.5 576.6875 " fill-opacity="1" fill-rule="evenodd"/></g></g></g></g><g clip-path="url(#c732f77a6e)"><g clip-path="url(#b1c0bc1ed2)"><g clip-path="url(#d8cdc4b218)"><g clip-path="url(#cd52d5a0ca)"><path fill="#fbca8e" d="M 958.589844 720.375 C 979.875 715.894531 991.394531 700.246094 993.15625 673.40625 C 985.011719 676.5 978.777344 676.84375 974.4375 674.460938 C 975.097656 678.058594 974.859375 681.367188 973.71875 684.367188 C 975.476562 690.46875 975.339844 696.804688 973.742188 702.476562 C 972.320312 707.476562 969.773438 711.96875 966.347656 715.34375 C 964.101562 717.570312 961.484375 719.289062 958.589844 720.375 " fill-opacity="1" fill-rule="evenodd"/></g></g></g></g><g clip-path="url(#6089b622bd)"><g clip-path="url(#5d3c3450c6)"><g clip-path="url(#2fbde8a805)"><g clip-path="url(#2ef93d7734)"><path fill="#fbca8e" d="M 965.382812 644.097656 C 963.570312 644.714844 962.136719 645.796875 961.34375 647.34375 C 959.117188 651.703125 962.753906 658.007812 969.46875 661.445312 C 976.164062 664.875 983.414062 664.128906 985.636719 659.785156 C 987.28125 656.582031 985.742188 652.324219 982.160156 648.925781 C 979.570312 650.296875 976.132812 650.644531 972.699219 649.605469 C 969.410156 648.597656 966.808594 646.53125 965.382812 644.097656 Z M 968.582031 650.71875 C 969.410156 652.125 971.039062 653.515625 973.164062 654.457031 C 976.730469 656.039062 980.339844 655.738281 981.414062 653.828125 C 982.039062 654.871094 982.230469 655.9375 981.832031 656.832031 C 980.914062 658.910156 977.171875 659.285156 973.484375 657.65625 C 969.792969 656.019531 967.554688 653 968.472656 650.921875 L 968.582031 650.71875 " fill-opacity="1" fill-rule="evenodd"/></g></g></g></g><g clip-path="url(#8b9201070a)"><g clip-path="url(#228727841d)"><g clip-path="url(#792416cfd7)"><g clip-path="url(#f8679172b2)"><path fill="#fbca8e" d="M 971.078125 626.558594 C 983.777344 627.296875 993.40625 633.382812 999.9375 644.78125 C 1006.03125 616.34375 1018.523438 589.164062 1031.292969 560.226562 C 1056.34375 503.488281 1001.285156 488.304688 990.617188 530.042969 C 991.25 533.542969 991.085938 537.367188 990.34375 541.632812 C 989.617188 545.761719 988.335938 550.363281 986.734375 555.464844 C 986.410156 556.460938 986.195312 557.484375 986.035156 558.515625 L 985.851562 560.238281 C 985.585938 563.996094 986.125 567.945312 986.699219 572.066406 C 989.582031 592.890625 982.964844 610.574219 971.078125 626.558594 " fill-opacity="1" fill-rule="evenodd"/></g></g></g></g><g clip-path="url(#fd1bd83534)"><g clip-path="url(#bcb8145c0f)"><g clip-path="url(#ec3c903ae9)"><g clip-path="url(#f87fe068d5)"><path fill="#fbca8e" d="M 1047.84375 501.636719 C 1050.980469 516.582031 1061.617188 526.988281 1071.582031 524.894531 C 1081.539062 522.789062 1087.066406 508.980469 1083.914062 494.042969 C 1080.78125 479.109375 1070.140625 468.691406 1060.195312 470.789062 C 1050.21875 472.890625 1044.691406 486.699219 1047.84375 501.636719 " fill-opacity="1" fill-rule="evenodd"/></g></g></g></g><g clip-path="url(#c1e749f54b)"><g clip-path="url(#3c52169fbe)"><g clip-path="url(#5105207a66)"><g clip-path="url(#8391b154bf)"><path fill="#fbca8e" d="M 993.53125 444.863281 C 994.179688 445.890625 995.003906 446.757812 996.015625 447.421875 C 1001.96875 451.335938 1013.90625 453.984375 1018.296875 436.996094 C 1022.691406 420.015625 1035.902344 406.363281 1029.953125 402.460938 C 1029.121094 401.914062 1028.015625 401.734375 1026.699219 401.84375 C 1019.597656 405.875 1012.648438 410.625 1008.417969 415.769531 C 1003.113281 422.242188 999.34375 429.621094 996.710938 437.722656 L 996.671875 437.824219 C 996.175781 439.328125 995.605469 440.730469 995 442.042969 C 994.535156 443.019531 994.054688 443.960938 993.53125 444.863281 " fill-opacity="1" fill-rule="evenodd"/></g></g></g></g><g clip-path="url(#894698f449)"><g clip-path="url(#3ea8cee0e6)"><g clip-path="url(#3309c8a726)"><g clip-path="url(#757efa4503)"><path fill="#fbca8e" d="M 1094.085938 412.496094 C 1100.984375 415.585938 1111.042969 408.167969 1116.527344 395.910156 C 1118.433594 391.652344 1119.535156 387.375 1119.867188 383.484375 L 1119.878906 383.476562 C 1122.332031 353.355469 1136.089844 342.152344 1157.589844 334.550781 C 1184.257812 325.109375 1201.320312 302.679688 1215.347656 281.476562 C 1222.546875 270.054688 1258.910156 238.390625 1287.480469 226.144531 C 1276.753906 227.445312 1262.6875 226.5625 1244.128906 224.652344 C 1222.238281 233.160156 1198.722656 250.375 1174.289062 279.160156 C 1155.773438 292.585938 1145.339844 293.007812 1142.945312 280.386719 L 1142.570312 280.980469 C 1141.234375 283.054688 1139.863281 285.058594 1138.441406 287.007812 C 1136.996094 288.972656 1135.488281 290.90625 1133.910156 292.800781 C 1125.988281 302.328125 1116.363281 310.902344 1105.007812 318.4375 C 1098.777344 322.574219 1093.429688 326.957031 1088.859375 331.554688 C 1082.621094 345.621094 1096.335938 348.578125 1094.535156 360.75 C 1091.664062 380.359375 1078.894531 405.707031 1094.085938 412.496094 " fill-opacity="1" fill-rule="evenodd"/></g></g></g></g><g clip-path="url(#abcda97bc0)"><g clip-path="url(#1926c5b242)"><g clip-path="url(#adec2a49e9)"><g clip-path="url(#b294d68c56)"><path fill="#d6a76d" d="M 941.34375 723.882812 C 940.96875 722.269531 940.714844 720.621094 940.59375 718.894531 C 939.996094 718.597656 939.40625 718.28125 938.8125 717.933594 C 929.140625 712.367188 931.964844 705.109375 936.570312 697.097656 C 937.167969 696.074219 937.769531 695.066406 938.378906 694.039062 L 939.285156 692.523438 C 940.34375 690.75 941.25 689.042969 942.117188 687.410156 C 942.808594 686.109375 943.492188 684.847656 944.179688 683.648438 C 943.765625 678.691406 943.882812 673.351562 944.515625 667.609375 C 939.019531 678.585938 934.363281 692.394531 932.027344 696.5625 C 930.832031 698.683594 929.707031 700.703125 928.761719 702.480469 L 928.613281 702.753906 C 926.90625 706.152344 926.839844 709.765625 928.191406 713.046875 C 929.589844 716.433594 932.496094 719.515625 936.683594 721.746094 L 936.679688 721.734375 L 937.175781 721.992188 L 937.207031 722.023438 C 938.597656 722.710938 939.96875 723.332031 941.34375 723.882812 " fill-opacity="1" fill-rule="evenodd"/></g></g></g></g><g clip-path="url(#510bc22422)"><g clip-path="url(#4de9ce776d)"><g clip-path="url(#69edff8835)"><g clip-path="url(#bd7c7b10d4)"><path fill="#d6a76d" d="M 1247.675781 362.980469 C 1274.589844 345.96875 1360.84375 291.1875 1352.285156 250.585938 C 1359.59375 261.925781 1365.128906 276.8125 1369.066406 295.070312 C 1372.28125 309.953125 1382.6875 313.089844 1393.324219 317.398438 C 1421.238281 328.691406 1413.328125 349.222656 1395.238281 363.898438 C 1353.085938 387.074219 1312.71875 401.515625 1282.324219 408.640625 C 1307.40625 401.449219 1337.992188 380.117188 1350.476562 360.566406 C 1312.53125 389.109375 1262.910156 411.410156 1221.722656 409.257812 C 1211.25 439.070312 1184.324219 463.886719 1154.59375 474.144531 C 1154.28125 472.304688 1154.050781 471.035156 1153.890625 470.332031 L 1153.921875 470.1875 C 1163.691406 442.046875 1193.332031 408.433594 1245.371094 365.527344 L 1247.484375 363.152344 L 1247.675781 362.980469 " fill-opacity="1" fill-rule="evenodd"/></g></g></g></g><g clip-path="url(#ba12d8ae31)"><g clip-path="url(#f7de6b2290)"><g clip-path="url(#33adbe9508)"><g clip-path="url(#3e3f561c3b)"><path fill="#d6a76d" d="M 180.929688 1010.632812 C 265.472656 1012.011719 213.824219 1206.820312 126.238281 1182.675781 C 143.929688 1259.152344 214.683594 1248.296875 261.097656 1181.167969 C 275.09375 1136.078125 271.902344 1109.109375 269.988281 1092.121094 C 260.9375 1119.15625 249.445312 1140.621094 235.53125 1156.503906 C 250.929688 1117.195312 257.972656 1084.46875 256.664062 1058.320312 C 287.671875 1044.324219 271.433594 1002.46875 275.28125 977.890625 C 271.5 987.660156 268.828125 998.246094 267.242188 1009.644531 C 261.507812 987.4375 272.6875 955.507812 291.015625 941.855469 C 279.46875 938.921875 272.371094 953.179688 267.414062 962.199219 C 268.917969 957.121094 268.910156 944.054688 262.179688 952.859375 C 257.648438 958.8125 246.097656 974.75 243.699219 982.894531 C 242.476562 973.707031 248.128906 956.792969 253.773438 949.207031 C 233.652344 928.378906 198.015625 1000.144531 180.929688 1010.632812 " fill-opacity="1" fill-rule="evenodd"/></g></g></g></g></svg>